<svg width="16" height="16" viewBox="0 0 16 16" fill="none" xmlns="http://www.w3.org/2000/svg">
<path d="M11.232 4.26607C11.208 4.24207 11.172 4.23007 11.124 4.23007C11.076 4.23007 11.034 4.24807 10.998 4.28407L6.516 9.03607C6.48 9.07207 6.438 9.09007 6.39 9.09007C6.342 9.09007 6.306 9.07207 6.282 9.03607L4.68 7.45207C4.656 7.41607 4.62 7.39807 4.572 7.39807C4.524 7.39807 4.482 7.41607 4.446 7.45207L3.492 8.40607C3.456 8.44207 3.438 8.48407 3.438 8.53207C3.438 8.58007 3.456 8.62207 3.492 8.65807L6.336 11.5021C6.36 11.5261 6.396 11.5381 6.444 11.5381C6.492 11.5381 6.534 11.5201 6.57 11.4841L12.258 5.45407C12.318 5.37007 12.312 5.29207 12.24 5.22007C12.096 5.07607 11.874 4.86607 11.574 4.59007L11.232 4.26607ZM7.866 6.67572e-05C6.438 6.67572e-05 5.112 0.360067 3.888 1.08007C2.7 1.77607 1.764 2.71807 1.08 3.90607C0.36 5.13007 0 6.45607 0 7.88407C0 9.31207 0.36 10.6381 1.08 11.8621C1.764 13.0501 2.7 13.9921 3.888 14.6881C5.112 15.4081 6.438 15.7681 7.866 15.7681C9.294 15.7681 10.62 15.4081 11.844 14.6881C13.032 13.9921 13.974 13.0501 14.67 11.8621C15.39 10.6381 15.75 9.31207 15.75 7.88407C15.75 6.45607 15.39 5.13007 14.67 3.90607C13.974 2.71807 13.032 1.77607 11.844 1.08007C10.62 0.360067 9.294 6.67572e-05 7.866 6.67572e-05ZM7.866 14.5261C6.666 14.5261 5.55 14.2201 4.518 13.6081C3.522 13.0201 2.73 12.2281 2.142 11.2321C1.53 10.2001 1.224 9.08407 1.224 7.88407C1.224 6.68407 1.53 5.56807 2.142 4.53607C2.73 3.54007 3.522 2.74807 4.518 2.16007C5.55 1.54807 6.666 1.24207 7.866 1.24207C9.066 1.24207 10.182 1.54207 11.214 2.14207C12.222 2.73007 13.02 3.52807 13.608 4.53607C14.208 5.56807 14.508 6.68407 14.508 7.88407C14.508 9.08407 14.208 10.2001 13.608 11.2321C13.02 12.2401 12.222 13.0381 11.214 13.6261C10.182 14.2261 9.066 14.5261 7.866 14.5261Z" fill="#00AE3D"/>
</svg>
