<svg width="1034" height="280" viewBox="0 0 1034 280" fill="none" xmlns="http://www.w3.org/2000/svg">
<path d="M326.245 234V185.7H346.6C351.752 185.7 356.283 186.712 360.193 188.736C364.149 190.76 367.208 193.589 369.37 197.223C371.578 200.857 372.682 205.066 372.682 209.85C372.682 214.634 371.578 218.843 369.37 222.477C367.208 226.111 364.149 228.94 360.193 230.964C356.283 232.988 351.752 234 346.6 234H326.245ZM333.145 227.997H346.186C350.188 227.997 353.638 227.238 356.536 225.72C359.48 224.202 361.757 222.086 363.367 219.372C364.977 216.612 365.782 213.438 365.782 209.85C365.782 206.216 364.977 203.042 363.367 200.328C361.757 197.614 359.48 195.498 356.536 193.98C353.638 192.462 350.188 191.703 346.186 191.703H333.145V227.997ZM383.251 234V185.7H390.151V234H383.251ZM426.415 234.552C422.689 234.552 419.262 233.954 416.134 232.758C413.006 231.516 410.292 229.791 407.992 227.583C405.692 225.329 403.898 222.707 402.61 219.717C401.322 216.727 400.678 213.438 400.678 209.85C400.678 206.262 401.322 202.973 402.61 199.983C403.898 196.993 405.692 194.394 407.992 192.186C410.338 189.932 413.075 188.207 416.203 187.011C419.331 185.769 422.781 185.148 426.553 185.148C430.371 185.148 433.867 185.769 437.041 187.011C440.215 188.253 442.906 190.116 445.114 192.6L440.836 196.878C438.858 194.946 436.696 193.543 434.35 192.669C432.05 191.749 429.543 191.289 426.829 191.289C424.069 191.289 421.493 191.749 419.101 192.669C416.755 193.589 414.708 194.877 412.96 196.533C411.258 198.189 409.924 200.167 408.958 202.467C408.038 204.721 407.578 207.182 407.578 209.85C407.578 212.472 408.038 214.933 408.958 217.233C409.924 219.487 411.258 221.465 412.96 223.167C414.708 224.823 416.755 226.111 419.101 227.031C421.447 227.951 424 228.411 426.76 228.411C429.336 228.411 431.797 228.02 434.143 227.238C436.535 226.41 438.743 225.053 440.767 223.167L444.7 228.411C442.308 230.435 439.502 231.976 436.282 233.034C433.108 234.046 429.819 234.552 426.415 234.552ZM444.7 228.411L438.076 227.514V209.574H444.7V228.411ZM457.911 234V185.7H464.811V234H457.911ZM488.862 234V191.703H472.302V185.7H512.253V191.703H495.693V234H488.862ZM510.029 234L531.902 185.7H538.733L560.675 234H553.43L533.903 189.564H536.663L517.136 234H510.029ZM519.344 221.925L521.207 216.405H548.393L550.394 221.925H519.344ZM567.88 234V185.7H574.78V227.997H600.931V234H567.88ZM648.976 234.552C645.296 234.552 641.892 233.954 638.764 232.758C635.682 231.516 632.991 229.791 630.691 227.583C628.437 225.329 626.666 222.707 625.378 219.717C624.09 216.727 623.446 213.438 623.446 209.85C623.446 206.262 624.09 202.973 625.378 199.983C626.666 196.993 628.46 194.394 630.76 192.186C633.06 189.932 635.751 188.207 638.833 187.011C641.961 185.769 645.365 185.148 649.045 185.148C652.771 185.148 656.198 185.792 659.326 187.08C662.5 188.322 665.191 190.185 667.399 192.669L662.914 197.016C661.074 195.084 659.004 193.658 656.704 192.738C654.404 191.772 651.943 191.289 649.321 191.289C646.607 191.289 644.077 191.749 641.731 192.669C639.431 193.589 637.43 194.877 635.728 196.533C634.026 198.189 632.692 200.167 631.726 202.467C630.806 204.721 630.346 207.182 630.346 209.85C630.346 212.518 630.806 215.002 631.726 217.302C632.692 219.556 634.026 221.511 635.728 223.167C637.43 224.823 639.431 226.111 641.731 227.031C644.077 227.951 646.607 228.411 649.321 228.411C651.943 228.411 654.404 227.951 656.704 227.031C659.004 226.065 661.074 224.593 662.914 222.615L667.399 226.962C665.191 229.446 662.5 231.332 659.326 232.62C656.198 233.908 652.748 234.552 648.976 234.552ZM668.109 234L689.982 185.7H696.813L718.755 234H711.51L691.983 189.564H694.743L675.216 234H668.109ZM677.424 221.925L679.287 216.405H706.473L708.474 221.925H677.424ZM725.96 234V185.7H744.797C751.053 185.7 755.975 187.195 759.563 190.185C763.151 193.129 764.945 197.246 764.945 202.536C764.945 206.032 764.14 209.045 762.53 211.575C760.92 214.059 758.62 215.968 755.63 217.302C752.64 218.636 749.029 219.303 744.797 219.303H729.755L732.86 216.129V234H725.96ZM758.252 234L745.97 216.474H753.353L765.773 234H758.252ZM732.86 216.819L729.755 213.438H744.59C749.006 213.438 752.341 212.495 754.595 210.609C756.895 208.677 758.045 205.986 758.045 202.536C758.045 199.086 756.895 196.418 754.595 194.532C752.341 192.646 749.006 191.703 744.59 191.703H729.755L732.86 188.253V216.819ZM776.093 234V185.7H796.448C801.6 185.7 806.131 186.712 810.041 188.736C813.997 190.76 817.056 193.589 819.218 197.223C821.426 200.857 822.53 205.066 822.53 209.85C822.53 214.634 821.426 218.843 819.218 222.477C817.056 226.111 813.997 228.94 810.041 230.964C806.131 232.988 801.6 234 796.448 234H776.093ZM782.993 227.997H796.034C800.036 227.997 803.486 227.238 806.384 225.72C809.328 224.202 811.605 222.086 813.215 219.372C814.825 216.612 815.63 213.438 815.63 209.85C815.63 206.216 814.825 203.042 813.215 200.328C811.605 197.614 809.328 195.498 806.384 193.98C803.486 192.462 800.036 191.703 796.034 191.703H782.993V227.997Z" fill="white"/>
<path d="M463 35L436.472 148H397.249L381.492 78.2441L365.735 148H326.528L300 35H334.068L346.609 111.938L364.135 35H398.696L416.376 111.938L428.917 35H463Z" fill="white"/>
<path d="M507.974 60.0602V78.733H545.137V102.51H507.974V122.94H550V148H476V35H550V60.0602H507.974Z" fill="white"/>
<path d="M652.149 99.805C656.05 104.802 658 110.608 658 117.194C658 126.989 654.744 134.568 648.218 139.947C641.691 145.326 632.338 148 620.145 148H564V35H618.855C630.296 35 639.264 37.506 645.73 42.5027C652.195 47.4995 655.435 54.7425 655.435 64.2165C655.435 70.9247 653.669 76.5327 650.137 81.0557C646.605 85.5788 641.952 88.5279 636.178 89.9185C642.935 91.4924 648.248 94.7929 652.149 99.805ZM595.605 80.1694H611.484C619.393 80.1694 623.355 76.8689 623.355 70.2676C623.355 63.4525 619.347 60.0602 611.33 60.0602H595.605V80.1694ZM625.766 112.564C625.766 105.551 621.65 102.036 613.419 102.036H595.62V122.787H613.419C621.65 122.787 625.766 119.379 625.766 112.564Z" fill="white"/>
<path d="M703 35V148H671V35H703Z" fill="white"/>
<path d="M878.254 35.0154V99.9907C878.254 106.427 879.659 111.384 882.485 114.864C885.296 118.344 889.588 120.084 895.332 120.084C901.076 120.084 905.414 118.313 908.331 114.772C911.264 111.23 912.731 106.303 912.731 99.9753V35H944V99.9753C944 110.692 941.846 119.807 937.538 127.32C933.231 134.819 927.35 140.485 919.91 144.288C912.456 148.091 904.054 150 894.706 150C885.342 150 877.078 148.122 869.898 144.365C862.719 140.608 857.112 134.988 853.064 127.474C849.016 119.976 847 110.799 847 99.9753V35H878.254V35.0154Z" fill="#1A85F8"/>
<path d="M992.542 60.0602V78.733H1029.2V102.51H992.542V122.94H1034V148H961V35H1034V60.0602H992.542Z" fill="#1A85F8"/>
<path d="M785.697 148.633L787.946 152H823.635L811.759 137.071C818.413 131.721 823.604 125.11 827.363 117.238C831.121 109.366 833 100.725 833 91.3008C833 80.1695 830.443 70.1605 825.36 61.274C820.277 52.3874 813.3 45.4535 804.443 40.4721C795.602 35.4907 785.805 33 775.085 33C764.472 33 754.707 35.4907 745.804 40.4721C736.901 45.4535 729.877 52.3874 724.732 61.274C719.588 70.1605 717 80.1695 717 91.3008C717 102.432 719.572 112.441 724.732 121.327C729.892 130.214 736.901 137.148 745.804 142.129C754.707 147.111 764.457 149.602 775.085 149.602C778.828 149.602 782.37 149.279 785.697 148.633ZM749.177 91.3008C749.177 82.3066 751.487 75.2188 756.093 70.0222C760.698 64.8409 767.029 62.2272 775.069 62.2272C783.11 62.2272 789.425 64.8255 793.969 70.0222C798.528 75.2188 800.808 82.3066 800.808 91.3008C800.808 100.08 798.497 107.091 793.892 112.333C789.286 117.576 783.002 120.205 775.069 120.205C767.029 120.205 760.698 117.576 756.093 112.333C751.487 107.106 749.177 100.095 749.177 91.3008Z" fill="#1A85F8"/>
<path d="M136.5 220.921C90.5511 220.921 53.3035 182.897 53.3035 136C53.3035 89.1026 90.5511 51.079 136.5 51.079C182.449 51.079 219.697 89.1026 219.697 136C219.697 160.691 209.364 182.915 192.876 198.438L244.859 218.661C262.495 195.745 273 167.106 273 136C273 60.8879 211.884 0 136.5 0C61.1155 0 0 60.8879 0 136C0 211.112 61.1155 272 136.5 272C158.969 272 180.144 266.554 198.833 256.979L180.886 207.814C168.042 216.107 152.823 220.921 136.5 220.921Z" fill="#1A85F8"/>
<path d="M232.772 236.173L263 229.342L189.261 201C187.565 202.418 185.809 203.749 184 205.029L211.467 280L218.797 249.92L233.828 265.18C234.244 265.595 234.91 265.604 235.334 265.189L247.787 252.946C248.211 252.531 248.211 251.865 247.795 251.442L232.772 236.173Z" fill="#1A85F8"/>
<path d="M210.016 106.045L181.694 185.385H148.895L136.519 148.697L123.702 185.385H90.903L62.5811 106.045H94.481L108.491 147.962L123.097 106.045H151.721L165.887 148.403L180.493 106.045H210.016Z" fill="white"/>
</svg>
