<svg xmlns="http://www.w3.org/2000/svg" fill="none" viewBox="24.18 25.220000000000002 92.03999999999999 84.24000000000001" style="max-height: 500px" width="92.03999999999999" height="84.24000000000001">
<path fill-opacity="0.1" fill="#022B5B" d="M110.37 50.0498C114.595 63.2448 102.44 81.5098 86.385 92.8198C70.265 104.195 50.245 108.55 39.585 100.62C28.925 92.7548 27.625 72.6048 33.41 57.2648C39.195 41.9248 52.13 31.3948 68.835 30.1598C85.605 28.8598 106.145 36.9198 110.37 50.0498Z"/>
<path fill="#022B5B" d="M75.0256 34.0948L62.3074 54.3283H67.8957V88.4362H64.4271V61.0728H49.9746V88.4362H46.506V69.7443H32.0535V91.9048H82.3482V54.3283H87.7438L75.0256 34.0948ZM35.5221 88.4362V73.2129H43.2301V88.4362H35.5221ZM53.2505 88.4362V64.5414H60.9585V88.4362H53.2505ZM71.1716 88.4362V50.8597H68.4738L75.0256 40.4539L81.7701 50.8597H78.8796V88.4362H71.1716Z"/>
</svg>