<svg xmlns="http://www.w3.org/2000/svg" fill="none" viewBox="24.18 25.220000000000002 92.03999999999999 84.24000000000001" style="max-height: 500px" width="92.03999999999999" height="84.24000000000001">
<path fill-opacity="0.1" fill="#022B5B" d="M110.37 50.0498C114.595 63.2448 102.44 81.5098 86.385 92.8198C70.265 104.195 50.245 108.55 39.585 100.62C28.925 92.7548 27.625 72.6048 33.41 57.2648C39.195 41.9248 52.13 31.3948 68.835 30.1598C85.605 28.8598 106.145 36.9198 110.37 50.0498Z"/>
<path fill="#022B5B" d="M88.3219 45.4641L82.1555 51.6305V34.0948H37.8345V56.6407L31.6681 62.6144V67.8173L37.8345 61.6509V78.4158H47.2768L39.9542 91.9048H44.1936L51.3235 78.4158H58.2607V91.9048H61.7293V78.4158H68.6665L75.7964 91.9048H80.0358L72.7132 78.4158H82.1555V56.6407L88.3219 50.667V45.4641ZM78.4942 74.9472H41.4958V57.9896L50.1673 49.3181L69.8227 69.1662L78.4942 60.302V74.9472ZM78.4942 55.2918L69.8227 63.9633L50.1673 44.3079L41.4958 52.9794V37.7561H78.4942V55.2918Z"/>
</svg>