<svg xmlns="http://www.w3.org/2000/svg" fill="none" viewBox="24.18 25.220000000000002 92.03999999999999 84.24000000000001" style="max-height: 500px" width="92.03999999999999" height="84.24000000000001">
<path fill-opacity="0.1" fill="#022B5B" d="M110.37 50.0498C114.595 63.2448 102.44 81.5098 86.385 92.8198C70.265 104.195 50.245 108.55 39.585 100.62C28.925 92.7548 27.625 72.6048 33.41 57.2648C39.195 41.9248 52.13 31.3948 68.835 30.1598C85.605 28.8598 106.145 36.9198 110.37 50.0498Z"/>
<path fill="#022B5B" d="M31.09 88.4362H59.995V91.9048H31.09V88.4362ZM31.09 81.6917H88.9V85.1603H31.09V81.6917ZM31.09 64.156V78.4158H88.9V64.156H31.09ZM85.4314 74.9472H34.5586V67.6246H85.4314V74.9472ZM31.09 34.0948V60.8801H88.9V34.0948H31.09ZM62.1147 57.4115H34.5586V37.5634H62.1147V57.4115ZM85.4314 57.4115H65.5833V37.5634H85.4314V57.4115ZM80.6139 42.3809C79.5862 41.3532 78.3978 40.8393 77.0489 40.8393C75.7 40.8393 74.5117 41.3532 73.484 42.3809C72.7132 43.1517 72.2314 44.051 72.0387 45.0787C71.846 46.1064 72.0066 47.1342 72.5205 48.1619L69.0519 51.4378L71.557 53.9429L74.8329 50.4743C75.4752 50.8597 76.1818 51.0524 76.9526 51.0524C78.3657 51.0524 79.5862 50.5385 80.6139 49.5108C81.6416 48.4831 82.1555 47.2947 82.1555 45.9458C82.1555 44.5969 81.6416 43.4086 80.6139 42.3809ZM78.3015 47.1984C77.9161 47.4553 77.4986 47.5838 77.0489 47.5838C76.5993 47.5838 76.2139 47.4232 75.8927 47.102C75.5716 46.7809 75.411 46.3955 75.411 45.9458C75.411 45.4962 75.5716 45.1108 75.8927 44.7896C76.2139 44.4685 76.5993 44.3079 77.0489 44.3079C77.4986 44.3079 77.884 44.4685 78.2051 44.7896C78.5263 45.1108 78.6869 45.4962 78.6869 45.9458C78.6869 46.3955 78.5584 46.813 78.3015 47.1984Z"/>
</svg>