<svg xmlns="http://www.w3.org/2000/svg" fill="none" viewBox="24.18 25.220000000000002 92.03999999999999 84.24000000000001" style="max-height: 500px" width="92.03999999999999" height="84.24000000000001">
<path fill-opacity="0.1" fill="#022B5B" d="M110.37 50.0498C114.595 63.2448 102.44 81.5098 86.385 92.8198C70.265 104.195 50.245 108.55 39.585 100.62C28.925 92.7548 27.625 72.6048 33.41 57.2648C39.195 41.9248 52.13 31.3948 68.835 30.1598C85.605 28.8598 106.145 36.9198 110.37 50.0498Z"/>
<path fill="#022B5B" d="M59.8023 34.0948C56.2052 34.0948 52.8651 35.0262 49.7819 36.8889C46.6987 38.7517 44.2257 41.2247 42.3629 44.3079C40.5002 47.3911 39.5688 50.7955 39.5688 54.521C39.5688 57.7327 40.3075 60.7837 41.7848 63.6742C43.2622 66.5647 45.2856 68.9735 47.8549 70.9005C49.1396 71.9282 50.0709 72.8275 50.649 73.5983C51.2271 74.3691 51.5162 75.3968 51.5162 76.6815V85.1603H54.9848V91.9048H65.0052V85.1603H68.4738V76.6815C68.4738 75.3968 68.7307 74.3691 69.2446 73.5983C69.7585 72.8275 70.722 71.9282 72.1351 70.9005C74.7044 68.9735 76.7278 66.5969 78.2051 63.7706C79.6825 60.9443 80.4212 57.8611 80.4212 54.521C80.4212 51.8232 79.9073 49.2217 78.8796 46.7166C77.8519 44.2115 76.3424 41.9955 74.3511 40.0685C72.3599 38.1415 70.1439 36.6641 67.703 35.6364C65.2621 34.6087 62.6286 34.0948 59.8023 34.0948ZM61.7293 88.4362H58.2607V85.1603H61.7293V88.4362ZM65.0052 81.6917H54.9848V78.4158H65.0052V81.6917ZM58.2607 52.7867C58.2607 52.2728 58.4213 51.8553 58.7424 51.5341C59.0636 51.213 59.4811 51.0524 59.995 51.0524C60.5089 51.0524 60.9264 51.213 61.2475 51.5341C61.5687 51.8553 61.7293 52.2728 61.7293 52.7867C61.7293 53.3006 61.5687 53.7181 61.2475 54.0392C60.9264 54.3604 60.5089 54.521 59.995 54.521C59.4811 54.521 59.0636 54.3604 58.7424 54.0392C58.4213 53.7181 58.2607 53.3006 58.2607 52.7867ZM70.2081 68.2027C68.6665 69.2304 67.5745 70.1939 66.9322 71.0932C66.0329 72.2494 65.4548 73.5983 65.1979 75.1399H61.7293V57.6042C62.757 57.2188 63.5599 56.6086 64.138 55.7735C64.7161 54.9385 65.0052 53.9429 65.0052 52.7867C65.0052 51.3736 64.5234 50.1852 63.5599 49.2217C62.5964 48.2582 61.4081 47.7765 59.995 47.7765C58.5819 47.7765 57.3935 48.2582 56.43 49.2217C55.4665 50.1852 54.9848 51.3736 54.9848 52.7867C54.9848 53.9429 55.2738 54.9385 55.8519 55.7735C56.43 56.6086 57.233 57.2188 58.2607 57.6042V75.1399H54.7921C54.5352 73.5983 53.9571 72.2494 53.0578 71.0932C52.4155 70.1939 51.3235 69.2304 49.7819 68.2027C47.598 66.5326 45.9279 64.5093 44.7717 62.1326C43.6155 59.756 43.0374 57.2188 43.0374 54.521C43.0374 51.4378 43.7761 48.6115 45.2534 46.0422C46.7308 43.4729 48.7863 41.4174 51.4198 39.8758C54.0534 38.3342 56.8476 37.5634 59.8023 37.5634C62.1147 37.5634 64.3307 37.9809 66.4504 38.8159C68.5701 39.651 70.4329 40.8714 72.0387 42.4772C73.6446 44.0831 74.865 45.9137 75.7 47.9692C76.5351 50.0247 76.9526 52.2086 76.9526 54.521C76.9526 57.2188 76.3745 59.756 75.2183 62.1326C74.0621 64.5093 72.392 66.5326 70.2081 68.2027ZM83.8898 52.7867H88.9V56.2553H83.8898V52.7867ZM31.09 52.7867H36.1002V56.2553H31.09V52.7867ZM81.192 39.4904L86.0095 34.6729L88.3219 36.9853L83.5044 41.8028L81.192 39.4904ZM31.6681 36.9853L33.9805 34.6729L38.798 39.4904L36.4856 41.8028L31.6681 36.9853ZM81.192 69.5516L83.5044 67.2392L88.3219 72.0567L86.0095 74.3691L81.192 69.5516ZM31.6681 72.0567L36.4856 67.2392L38.798 69.5516L33.9805 74.3691L31.6681 72.0567Z"/>
</svg>