<svg width="57" height="57" viewBox="0 0 57 57" fill="none" xmlns="http://www.w3.org/2000/svg">
<g clip-path="url(#clip0_238_232)">
<path d="M16.0312 20.2983L24.932 48.3247L28.1372 47.3578L19.5283 20.2983H16.0312Z" fill="#E0EAEF"/>
<path d="M26.9824 18.8882H30.3304V47.176H26.9824V18.8882Z" fill="#E0EAEF"/>
<path d="M4.54199 21.1351L24.7014 48.7781L27.4764 46.9047L7.74401 19.8945L4.54199 21.1351Z" fill="#E0EAEF"/>
<path d="M52.4585 21.1116L49.5758 19.3981L35.33 38.898L40.9712 20.2983H37.4725L30.3388 43.8191V18.8882H28.7559V47.176L32.2554 48.7785L52.4585 21.1116Z" fill="#B5D2D6"/>
<path d="M28.7555 57.0003C31.9882 57.0003 34.6087 54.3798 34.6087 51.1471C34.6087 47.9145 31.9882 45.2939 28.7555 45.2939C25.5229 45.2939 22.9023 47.9145 22.9023 51.1471C22.9023 54.3798 25.5229 57.0003 28.7555 57.0003Z" fill="#FEE46F"/>
<path d="M28.7559 45.2935V56.9999C31.9834 56.9999 34.609 54.3742 34.609 51.1468C34.609 47.9192 31.9834 45.2935 28.7559 45.2935Z" fill="#FED330"/>
<path d="M52.3503 20.4131C51.4782 14.7813 48.6117 9.61663 44.2789 5.87055C39.9001 2.08484 34.2972 0 28.5021 0C22.6998 0 17.0915 2.08941 12.7104 5.88347C8.37457 9.63812 5.51121 14.8128 4.64764 20.454L4.54199 21.1437C6.30031 21.331 7.7252 20.9461 8.77792 20.4656C9.67277 20.0572 10.2989 19.5799 10.6301 19.3261C11.1972 18.8916 11.432 18.7117 12.1366 18.7117C12.8552 18.7117 13.1044 18.8975 13.7062 19.3466C14.5164 19.9511 15.6262 20.7791 17.6785 20.7791C19.7308 20.7791 20.8404 19.9511 21.6507 19.3466C22.2524 18.8976 22.5016 18.7117 23.2201 18.7117C23.9386 18.7117 24.1876 18.8975 24.7894 19.3466C25.5996 19.9511 26.7092 20.7791 28.7615 20.7791C30.8138 20.7791 31.9234 19.9511 32.7337 19.3465C33.3353 18.8975 33.5845 18.7117 34.3029 18.7117C35.0213 18.7117 35.2706 18.8975 35.8722 19.3466C36.6824 19.9511 37.7921 20.7791 39.8443 20.7791C41.8966 20.7791 43.0062 19.9511 43.8163 19.3466C44.4182 18.8976 44.6673 18.7117 45.3857 18.7117C46.1194 18.7117 46.3959 18.8983 46.9807 19.3358C47.404 19.6524 47.8141 19.9099 48.217 20.124C49.6506 20.8857 50.988 21.0651 52.4584 21.1118L52.3503 20.4131Z" fill="#FD697F"/>
<path d="M52.3505 20.4131C51.4783 14.7813 48.6118 9.61663 44.2791 5.87055C39.9003 2.08484 34.2974 0 28.5023 0C28.5019 0 28.5014 0 28.501 0V20.7725C28.5869 20.7755 28.6723 20.7791 28.7618 20.7791C30.814 20.7791 31.9236 19.9511 32.734 19.3465C33.3356 18.8975 33.5848 18.7117 34.3032 18.7117C35.0216 18.7117 35.2708 18.8975 35.8725 19.3466C36.6827 19.9511 37.7924 20.7791 39.8445 20.7791C41.8969 20.7791 43.0065 19.9511 43.8166 19.3466C44.4184 18.8976 44.6676 18.7117 45.386 18.7117C46.1197 18.7117 46.3962 18.8983 46.981 19.3358C47.4043 19.6524 47.8144 19.9099 48.2173 20.124C49.6509 20.8857 50.9883 21.0651 52.4587 21.1118L52.3505 20.4131Z" fill="#FC445F"/>
<path d="M28.5015 0C28.5009 0 28.5004 0 28.4997 0C25.4966 0.000667969 22.6819 2.27143 20.5738 6.39424C18.695 10.0686 17.4527 15.3304 17.0703 20.7515C17.2642 20.7682 17.4653 20.7791 17.6788 20.7791C19.7312 20.7791 20.8408 19.9511 21.651 19.3466C22.2527 18.8976 22.5019 18.7117 23.2204 18.7117C23.9389 18.7117 24.188 18.8975 24.7897 19.3466C25.5999 19.9511 26.7095 20.7791 28.7619 20.7791C30.8141 20.7791 31.9237 19.9511 32.7341 19.3465C33.3357 18.8975 33.5848 18.7117 34.3032 18.7117C35.0216 18.7117 35.2709 18.8975 35.8725 19.3466C36.6828 19.9511 37.7925 20.7791 39.8446 20.7791C39.8749 20.7791 39.903 20.7772 39.933 20.7768C39.5489 15.3537 38.3043 10.0823 36.4237 6.40148C34.3146 2.27365 31.5011 0.000222656 28.5015 0Z" fill="#FC445F"/>
<path d="M36.4236 6.40148C34.3146 2.27365 31.6569 0.000222656 28.6572 0C28.6569 0 28.762 20.7791 28.762 20.7791C30.8142 20.7791 31.9238 19.9511 32.7342 19.3465C33.3358 18.8975 33.5849 18.7117 34.3033 18.7117C35.0217 18.7117 35.271 18.8975 35.8726 19.3466C36.6829 19.9511 37.7926 20.7791 39.8447 20.7791C39.875 20.7791 39.9031 20.7772 39.9331 20.7768C39.5488 15.3537 38.3041 10.0823 36.4236 6.40148Z" fill="#E1105A"/>
</g>
<defs>
<clipPath id="clip0_238_232">
<rect width="57" height="57" fill="white"/>
</clipPath>
</defs>
</svg>
