<svg width="48" height="48" viewBox="0 0 48 48" fill="none" xmlns="http://www.w3.org/2000/svg">
<g clip-path="url(#clip0_238_274)">
<path d="M3.12001 26.6483C3.00671 26.6253 2.88946 26.6307 2.77875 26.664C2.66805 26.6973 2.56731 26.7576 2.48556 26.8393L0.80762 28.5173C0.731813 28.5931 0.674426 28.6853 0.639882 28.7868C0.605338 28.8883 0.594561 28.9963 0.608381 29.1026C0.622201 29.2089 0.660249 29.3107 0.719592 29.4C0.778935 29.4892 0.857987 29.5637 0.950656 29.6176L6.9351 33.0989C7.05885 32.8461 7.20116 32.6028 7.36087 32.3711C8.2595 31.0615 9.28437 29.6356 10.4058 28.128L3.12001 26.6483Z" fill="#3B4551"/>
<path d="M19.8727 37.5947C18.3651 38.7162 16.9367 39.7435 15.6271 40.6421C15.3962 40.8004 15.1547 40.9426 14.9043 41.0679L18.3831 47.0497C18.437 47.1424 18.5115 47.2215 18.6008 47.2808C18.6901 47.3402 18.7918 47.3782 18.8981 47.3921C19.0044 47.4059 19.1125 47.3951 19.214 47.3606C19.3155 47.326 19.4077 47.2686 19.4835 47.1928L21.1613 45.515C21.2431 45.4332 21.3033 45.3325 21.3367 45.2218C21.37 45.1111 21.3754 44.9938 21.3524 44.8805L19.8727 37.5947Z" fill="#3B4551"/>
<path d="M2.4723 4.63899L6.16063 7.04159L5.38479 8.06657C5.23172 8.26879 5.157 8.51956 5.17442 8.77258C5.19183 9.02559 5.30022 9.26376 5.47955 9.4431C5.65889 9.62243 5.89705 9.73081 6.15007 9.74823C6.40309 9.76565 6.65386 9.69092 6.85608 9.53785L8.30695 8.43967L12.6382 11.261L12.0982 11.9745C11.9452 12.1767 11.8704 12.4275 11.8879 12.6805C11.9053 12.9336 12.0137 13.1717 12.193 13.351C12.3723 13.5304 12.6105 13.6388 12.8635 13.6562C13.1166 13.6736 13.3673 13.5989 13.5695 13.4458L14.6901 12.5976L20.0132 16.0651C22.2189 13.4485 24.4642 10.8714 26.6204 8.49247L21.0085 6.73393L22.3138 5.42861C22.3788 5.36359 22.4304 5.28641 22.4656 5.20146C22.5008 5.11651 22.5189 5.02546 22.5189 4.93351C22.5189 4.84156 22.5008 4.75051 22.4656 4.66556C22.4304 4.58061 22.3788 4.50342 22.3138 4.4384L21.1056 3.23021C20.9743 3.0989 20.7962 3.02514 20.6105 3.02514C20.4248 3.02514 20.2467 3.0989 20.1154 3.23021L17.6608 5.68488L12.9213 4.19971L14.115 3.00601C14.18 2.941 14.2316 2.86381 14.2668 2.77886C14.302 2.69391 14.3201 2.60286 14.3201 2.51091C14.3201 2.41896 14.302 2.32791 14.2668 2.24296C14.2316 2.15801 14.18 2.08082 14.115 2.0158L12.9069 0.807621C12.8418 0.742602 12.7647 0.691026 12.6797 0.655838C12.5948 0.62065 12.5037 0.602539 12.4118 0.602539C12.3198 0.602539 12.2288 0.62065 12.1438 0.655838C12.0589 0.691026 11.9817 0.742602 11.9166 0.807621L9.57365 3.15062L4.79484 1.65317C4.67281 1.61493 4.54264 1.61084 4.41845 1.64135C4.29426 1.67185 4.18079 1.73578 4.09036 1.82621L2.35936 3.55721C2.28567 3.6309 2.22936 3.72012 2.19454 3.81835C2.15971 3.91658 2.14726 4.02135 2.15808 4.12501C2.1689 4.22866 2.20273 4.3286 2.25709 4.41752C2.31145 4.50644 2.38498 4.5821 2.4723 4.63899Z" fill="#3B4551"/>
<path d="M47.193 35.0934L45.9848 33.8853C45.9198 33.8202 45.8426 33.7687 45.7577 33.7335C45.6727 33.6983 45.5817 33.6802 45.4897 33.6802C45.3978 33.6802 45.3067 33.6983 45.2218 33.7335C45.1368 33.7687 45.0596 33.8202 44.9946 33.8853L43.8009 35.079L42.3157 30.3395L44.7704 27.8849C44.9017 27.7536 44.9755 27.5755 44.9755 27.3898C44.9755 27.2041 44.9017 27.026 44.7704 26.8947L43.5622 25.6865C43.4972 25.6215 43.42 25.5699 43.3351 25.5347C43.2501 25.4995 43.1591 25.4814 43.0671 25.4814C42.9752 25.4814 42.8841 25.4995 42.7992 25.5347C42.7142 25.5699 42.6371 25.6215 42.572 25.6865L41.2667 26.9918L39.5082 21.3799C37.1292 23.5361 34.5522 25.7814 31.9355 27.987L35.403 33.3102L34.5548 34.4308C34.4018 34.633 34.327 34.8838 34.3445 35.1368C34.3619 35.3898 34.4703 35.628 34.6496 35.8073C34.8289 35.9866 35.0671 36.095 35.3201 36.1124C35.5731 36.1298 35.8239 36.0551 36.0261 35.9021L36.7396 35.3621L39.561 39.6934L38.4627 41.1442C38.3097 41.3464 38.235 41.5972 38.2524 41.8502C38.2698 42.1033 38.3782 42.3414 38.5575 42.5207C38.7369 42.7001 38.975 42.8085 39.228 42.8259C39.4811 42.8433 39.7318 42.7686 39.9341 42.6155L40.9591 41.8397L43.3616 45.528C43.4185 45.6153 43.4942 45.6888 43.5831 45.7432C43.672 45.7976 43.772 45.8314 43.8756 45.8422C43.9793 45.853 44.084 45.8406 44.1823 45.8058C44.2805 45.7709 44.3697 45.7146 44.4434 45.6409L46.1744 43.9099C46.2648 43.8195 46.3288 43.706 46.3593 43.5818C46.3898 43.4577 46.3857 43.3275 46.3475 43.2055L44.85 38.4266L47.193 36.0836C47.258 36.0186 47.3096 35.9414 47.3448 35.8565C47.38 35.7715 47.3981 35.6805 47.3981 35.5885C47.3981 35.4966 47.38 35.4055 47.3448 35.3206C47.3096 35.2356 47.258 35.1584 47.193 35.0934Z" fill="#3B4551"/>
<path d="M46.2939 6.95517L46.6743 5.68327C46.8552 5.0781 46.8691 4.43524 46.7145 3.82282C46.5598 3.21041 46.2423 2.65124 45.7956 2.2046C45.349 1.75796 44.7898 1.44047 44.1774 1.28579C43.565 1.13111 42.9221 1.145 42.317 1.32599L41.0451 1.70638C38.1697 2.56468 35.5619 4.14485 33.4702 6.29638C26.2286 13.7511 15.8396 26.1991 10.2479 34.3536C9.92466 34.8242 9.77633 35.393 9.82865 35.9615C9.88096 36.53 10.1306 37.0622 10.5343 37.4659C10.938 37.8696 11.4702 38.1193 12.0387 38.1716C12.6072 38.2239 13.1761 38.0756 13.6466 37.7523C21.8012 32.1606 34.2492 21.7716 41.7038 14.53C43.8554 12.4383 45.4355 9.83054 46.2939 6.95517ZM40.4909 9.90139C40.3406 9.32614 40.0398 8.80131 39.6194 8.38088C39.1989 7.96046 38.6741 7.65964 38.0989 7.50934C37.8113 7.41544 37.5659 7.2235 37.4055 6.96707C37.2451 6.71064 37.1799 6.40601 37.2212 6.10637C37.2443 5.91728 37.3083 5.7355 37.4089 5.57372C37.5095 5.41195 37.6442 5.27409 37.8036 5.16976C37.963 5.06544 38.1432 4.99717 38.3317 4.96973C38.5202 4.94228 38.7124 4.95632 38.895 5.01086C39.8715 5.28443 40.7612 5.80483 41.4783 6.52194C42.1954 7.23906 42.7158 8.12873 42.9894 9.10529C43.0439 9.28781 43.058 9.48004 43.0305 9.66854C43.0031 9.85705 42.9348 10.0373 42.8305 10.1967C42.7262 10.3561 42.5883 10.4908 42.4265 10.5913C42.2647 10.6919 42.083 10.756 41.8939 10.779C41.5942 10.8204 41.2896 10.7551 41.0332 10.5947C40.7767 10.4343 40.5848 10.1889 40.4909 9.90139Z" fill="#2E7BBA"/>
</g>
<defs>
<clipPath id="clip0_238_274">
<rect width="48" height="48" fill="white"/>
</clipPath>
</defs>
</svg>
