<svg width="52" height="52" viewBox="0 0 52 52" fill="none" xmlns="http://www.w3.org/2000/svg">
<path fill-rule="evenodd" clip-rule="evenodd" d="M11.4204 51.7357C11.1286 51.7357 10.8913 51.5459 10.8313 51.2685L9.91727 47.338L1.20318 51.6239C0.681612 51.8769 0.126334 51.3343 0.390719 50.8114L4.66655 42.0771L0.736072 41.163C0.166161 41.0284 0.096226 40.2575 0.624273 40.0153L11.4102 35.0691C11.9855 34.8029 12.4313 35.4418 12.229 35.8893C13.8153 36.8276 17.2148 40.0264 16.9555 40.6144L11.9789 51.3802C11.8774 51.5935 11.654 51.7357 11.4204 51.7357Z" fill="#FDBF00"/>
<path fill-rule="evenodd" clip-rule="evenodd" d="M12.345 28.7322C12.3349 28.7322 12.3248 28.7322 12.3248 28.7322L0.584151 28.2854C0.0450681 28.2638 -0.209599 27.5805 0.208328 27.219L13.9193 15.0316C14.0005 14.9604 14.0919 14.9097 14.2037 14.8894L21.0997 13.4574C21.7475 13.3193 14.9466 23.9264 12.2248 27.5173C13.3507 27.561 13.0515 28.7322 12.345 28.7322Z" fill="#FF193D"/>
<path fill-rule="evenodd" clip-rule="evenodd" d="M24.3189 52.0001C23.9994 52.0001 23.7222 51.7265 23.7096 51.411L23.2627 39.6704C23.2379 38.9449 35.2121 31.3627 37.3575 30.6378C37.552 29.8932 38.7 30.1448 38.5477 30.9158L37.1156 37.8118C37.0954 37.9134 37.0445 38.0149 36.9735 38.0962L24.776 51.797C24.6542 51.929 24.4916 52.0001 24.3189 52.0001Z" fill="#FF193D"/>
<path fill-rule="evenodd" clip-rule="evenodd" d="M23.8415 40.2694C23.679 40.2694 23.5266 40.2085 23.4149 40.0866L11.8978 28.5796C11.7251 28.4069 11.6743 28.153 11.7556 27.9295C17.8091 11.6952 34.0288 0.146069 51.3749 2.24183e-05C51.7289 -0.00297648 51.9973 0.295354 51.9945 0.619595C51.9013 11.6767 47.1239 22.4917 39.2789 30.3367C34.9016 34.714 29.7726 38.0453 24.0548 40.2391C23.9938 40.2593 23.9125 40.2694 23.8415 40.2694Z" fill="#E1F1FA"/>
<path fill-rule="evenodd" clip-rule="evenodd" d="M37.3705 2.62022C41.8226 0.962906 46.5553 0.0405662 51.3753 2.24183e-05C51.7293 -0.00297648 51.9976 0.295354 51.9948 0.619595C51.9545 5.4026 51.037 10.1401 49.3745 14.6118L49.0566 14.6452C42.8886 14.489 37.6292 9.18663 37.3401 2.93852C37.335 2.8296 37.3457 2.72267 37.3705 2.62022Z" fill="#F6FBFB"/>
<path fill-rule="evenodd" clip-rule="evenodd" d="M49.1002 14.1375C49.09 14.1375 49.0799 14.1375 49.0697 14.1375C46.1447 13.9852 43.3823 12.7563 41.3104 10.6743C39.2385 8.60241 38.0096 5.83994 37.8471 2.91494C37.8369 2.64072 37.9995 2.39697 38.2534 2.30556C42.1386 0.943455 47.3129 0 51.3854 0C51.7268 0 51.9977 0.293533 51.9947 0.619573C51.9135 5.07822 51.1416 9.48601 49.6791 13.7313C49.5979 13.975 49.3642 14.1375 49.1002 14.1375Z" fill="#FF193D"/>
<path fill-rule="evenodd" clip-rule="evenodd" d="M20.9578 45.5406C20.7953 45.5406 20.6429 45.4797 20.5313 45.3578L6.62736 31.4642C6.33887 31.1758 6.40784 30.694 6.76963 30.4993L12.0407 27.615C12.2743 27.4829 12.5689 27.5236 12.7618 27.7166L24.2688 39.2236C24.4618 39.4166 24.5024 39.7111 24.3704 39.9447L21.4861 45.2158C21.3819 45.4095 21.1686 45.5406 20.9578 45.5406Z" fill="#313E5B"/>
<path fill-rule="evenodd" clip-rule="evenodd" d="M33.2777 24.4868C28.1471 24.4868 25.5666 18.2534 29.1949 14.6251C31.4496 12.3704 35.116 12.3704 37.3706 14.6251C40.9954 18.2501 38.4275 24.4868 33.2777 24.4868Z" fill="#313E5B"/>
</svg>
