<svg height="512" viewBox="0 0 64 64" width="512" xmlns="http://www.w3.org/2000/svg"><g id="Icons"><g><g><path d="m49 8v48c0 2.21-1.79 4-4 4h-26c-2.21 0-4-1.79-4-4v-48c0-2.21 1.79-4 4-4h26c2.21 0 4 1.79 4 4z" fill="#0a5078"/></g></g><g><g><path d="m46 9v44c0 .55-.45 1-1 1h-26c-.55 0-1-.45-1-1v-44c0-.55.45-1 1-1h26c.55 0 1 .45 1 1z" fill="#f0f0f0"/></g></g><g><g><path d="m46 9v1c0-.55-.45-1-1-1h-26c-.55 0-1 .45-1 1v-1c0-.55.45-1 1-1h26c.55 0 1 .45 1 1z" fill="#d2d2d2"/></g></g><g><g><g><g><path d="m34 58h-4c-.553 0-1-.448-1-1s.447-1 1-1h4c.553 0 1 .448 1 1s-.447 1-1 1z" fill="#00143c"/></g></g></g></g><g><g><g><g><circle cx="30" cy="6" fill="#00143c" r=".5"/></g></g></g><g><g><g><path d="m34 6.5h-2c-.276 0-.5-.224-.5-.5s.224-.5.5-.5h2c.276 0 .5.224.5.5s-.224.5-.5.5z" fill="#00143c"/></g></g></g></g><g><g><g><path d="m35 26h-14c-.552 0-1-.448-1-1v-12c0-.552.448-1 1-1h14c.552 0 1 .448 1 1v12c0 .552-.448 1-1 1z" fill="#c80a50"/></g></g><g><g><g><g><path d="m43 18h-4c-.552 0-1-.448-1-1v-4c0-.552.448-1 1-1h4c.552 0 1 .448 1 1v4c0 .552-.448 1-1 1z" fill="#00a0c8"/></g></g></g></g><g><g><g><g><path d="m43 26h-4c-.552 0-1-.448-1-1v-4c0-.552.448-1 1-1h4c.552 0 1 .448 1 1v4c0 .552-.448 1-1 1z" fill="#fab400"/></g></g></g></g><g><g><g><path d="m34 34h-4c-.552 0-1-.448-1-1v-4c0-.552.448-1 1-1h4c.552 0 1 .448 1 1v4c0 .552-.448 1-1 1z" fill="#fab400"/></g></g><g><g><g><path d="m25 34h-4c-.552 0-1-.448-1-1v-4c0-.552.448-1 1-1h4c.552 0 1 .448 1 1v4c0 .552-.448 1-1 1z" fill="#c80a50"/></g></g><g><g><path d="m43 34h-4c-.552 0-1-.448-1-1v-4c0-.552.448-1 1-1h4c.552 0 1 .448 1 1v4c0 .552-.448 1-1 1z" fill="#c80a50"/></g></g></g></g><g><g><g><path d="m34 42h-4c-.552 0-1-.448-1-1v-4c0-.552.448-1 1-1h4c.552 0 1 .448 1 1v4c0 .552-.448 1-1 1z" fill="#0a5078"/></g></g><g><g><g><path d="m25 42h-4c-.552 0-1-.448-1-1v-4c0-.552.448-1 1-1h4c.552 0 1 .448 1 1v4c0 .552-.448 1-1 1z" fill="#00a0c8"/></g></g><g><g><path d="m43 42h-4c-.552 0-1-.448-1-1v-4c0-.552.448-1 1-1h4c.552 0 1 .448 1 1v4c0 .552-.448 1-1 1z" fill="#00a0c8"/></g></g></g></g></g><g><g><g><circle cx="28" cy="51" fill="#00a0c8" r="1"/></g></g><g><g><circle cx="32" cy="51" fill="#00a0c8" r="1"/></g></g><g><g><circle cx="36" cy="51" fill="#00a0c8" r="1"/></g></g></g><g><g><g><path d="m55 33h-2c-.553 0-1-.448-1-1s.447-1 1-1h2c.553 0 1 .448 1 1s-.447 1-1 1z" fill="#c80a50"/></g></g><g><g><path d="m52.293 37.707-1.414-1.414c-.391-.391-.391-1.023 0-1.414s1.023-.391 1.414 0l1.414 1.414c.391.391.391 1.023 0 1.414s-1.023.391-1.414 0z" fill="#fab400"/></g></g><g><g><path d="m50.879 29.121c-.391-.391-.391-1.023 0-1.414l1.414-1.414c.391-.391 1.023-.391 1.414 0s.391 1.023 0 1.414l-1.414 1.414c-.391.391-1.023.391-1.414 0z" fill="#00a0c8"/></g></g></g><g><g><g><path d="m9 31h2c.553 0 1 .448 1 1s-.447 1-1 1h-2c-.553 0-1-.448-1-1s.447-1 1-1z" fill="#c80a50"/></g></g><g><g><path d="m11.707 26.293 1.414 1.414c.391.391.391 1.023 0 1.414s-1.023.391-1.414 0l-1.414-1.414c-.391-.391-.391-1.023 0-1.414s1.023-.391 1.414 0z" fill="#fab400"/></g></g><g><g><path d="m13.121 34.879c.391.391.391 1.023 0 1.414l-1.414 1.414c-.391.391-1.023.391-1.414 0s-.391-1.023 0-1.414l1.414-1.414c.391-.391 1.023-.391 1.414 0z" fill="#00a0c8"/></g></g></g></g></svg>