<svg width="55" height="55" viewBox="0 0 55 55" fill="none" xmlns="http://www.w3.org/2000/svg">
<path d="M0 0H35V54.25H0V0Z" fill="#494848"/>
<path d="M2.625 5.25H32.375V49.875H2.625V5.25Z" fill="#D6473C"/>
<path opacity="0.2" d="M4.375 34.5765V5.25H2.625V49.875H32.375V48.125H17.9235C16.1443 48.1251 14.3824 47.7747 12.7386 47.0939C11.0947 46.4131 9.60112 45.4151 8.34301 44.157C7.08489 42.8989 6.08692 41.4053 5.40608 39.7614C4.72525 38.1176 4.37489 36.3557 4.375 34.5765Z" fill="black"/>
<path d="M41.1252 19.958C38.5548 19.9558 36.0404 20.7089 33.8946 22.1239C31.7487 23.5389 30.066 25.5534 29.0556 27.9168C28.0453 30.2803 27.7517 32.8886 28.2115 35.4175C28.6714 37.9464 29.8642 40.2845 31.6419 42.141L30.6252 46.208L35.7798 45.0626C37.566 45.8622 39.5085 46.2522 41.4649 46.204C43.4213 46.1559 45.3422 45.6709 47.087 44.7844C48.8317 43.898 50.3562 42.6326 51.5487 41.0809C52.7413 39.5292 53.5717 37.7305 53.9793 35.8164C54.3868 33.9022 54.3612 31.9212 53.9042 30.0183C53.4473 28.1154 52.5705 26.3387 51.3382 24.8184C50.1059 23.2981 48.5492 22.0726 46.7821 21.2316C45.015 20.3907 43.0822 19.9555 41.1252 19.958Z" fill="#D2DCE6"/>
<path d="M13.125 1.75H21.875V3.5H13.125V1.75Z" fill="#F2F2F2"/>
<path d="M9.625 1.75H11.375V3.5H9.625V1.75Z" fill="#F2F2F2"/>
<path d="M23.625 1.75H25.375V3.5H23.625V1.75Z" fill="#F2F2F2"/>
<path d="M13.125 23.625H7.875C7.64294 23.625 7.42038 23.5328 7.25628 23.3687C7.09219 23.2046 7 22.9821 7 22.75V17.5C7 17.2679 7.09219 17.0454 7.25628 16.8813C7.42038 16.7172 7.64294 16.625 7.875 16.625H13.125C13.3571 16.625 13.5796 16.7172 13.7437 16.8813C13.9078 17.0454 14 17.2679 14 17.5V22.75C14 22.9821 13.9078 23.2046 13.7437 23.3687C13.5796 23.5328 13.3571 23.625 13.125 23.625ZM8.75 21.875H12.25V18.375H8.75V21.875Z" fill="#F2F2F2"/>
<path d="M9.625 19.25H11.375V21H9.625V19.25Z" fill="#F2F2F2"/>
<path d="M27.125 23.625H21.875C21.6429 23.625 21.4204 23.5328 21.2563 23.3687C21.0922 23.2046 21 22.9821 21 22.75V17.5C21 17.2679 21.0922 17.0454 21.2563 16.8813C21.4204 16.7172 21.6429 16.625 21.875 16.625H27.125C27.3571 16.625 27.5796 16.7172 27.7437 16.8813C27.9078 17.0454 28 17.2679 28 17.5V22.75C28 22.9821 27.9078 23.2046 27.7437 23.3687C27.5796 23.5328 27.3571 23.625 27.125 23.625ZM22.75 21.875H26.25V18.375H22.75V21.875Z" fill="#F2F2F2"/>
<path d="M23.625 19.25H25.375V21H23.625V19.25Z" fill="#F2F2F2"/>
<path d="M13.125 37.625H7.875C7.64294 37.625 7.42038 37.5328 7.25628 37.3687C7.09219 37.2046 7 36.9821 7 36.75V31.5C7 31.2679 7.09219 31.0454 7.25628 30.8813C7.42038 30.7172 7.64294 30.625 7.875 30.625H13.125C13.3571 30.625 13.5796 30.7172 13.7437 30.8813C13.9078 31.0454 14 31.2679 14 31.5V36.75C14 36.9821 13.9078 37.2046 13.7437 37.3687C13.5796 37.5328 13.3571 37.625 13.125 37.625ZM8.75 35.875H12.25V32.375H8.75V35.875Z" fill="#F2F2F2"/>
<path d="M9.625 33.25H11.375V35H9.625V33.25Z" fill="#F2F2F2"/>
<path d="M23.625 26.25H19.25C19.0179 26.25 18.7954 26.1578 18.6313 25.9937C18.4672 25.8296 18.375 25.6071 18.375 25.375V18.375H15.75V16.625H19.25C19.4821 16.625 19.7046 16.7172 19.8687 16.8813C20.0328 17.0454 20.125 17.2679 20.125 17.5V24.5H23.625V26.25Z" fill="#F2F2F2"/>
<path d="M15.75 26.25H11.375V24.5H14.875V20.125H16.625V25.375C16.625 25.6071 16.5328 25.8296 16.3687 25.9937C16.2046 26.1578 15.9821 26.25 15.75 26.25Z" fill="#F2F2F2"/>
<path d="M12.25 29.75H7.875C7.64294 29.75 7.42038 29.6578 7.25628 29.4937C7.09219 29.3296 7 29.1071 7 28.875V25.375H8.75V28H12.25V29.75Z" fill="#F2F2F2"/>
<path d="M28 28.875H26.25V26.25H25.375V24.5H27.125C27.3571 24.5 27.5796 24.5922 27.7437 24.7563C27.9078 24.9204 28 25.1429 28 25.375V28.875Z" fill="#F2F2F2"/>
<path d="M28 37.625H23.625C23.3929 37.625 23.1704 37.5328 23.0063 37.3687C22.8422 37.2046 22.75 36.9821 22.75 36.75V34.125H24.5V35.875H28V37.625Z" fill="#F2F2F2"/>
<path d="M21.875 37.625H15.75C15.5179 37.625 15.2954 37.5328 15.1313 37.3687C14.9672 37.2046 14.875 36.9821 14.875 36.75V34.125H16.625V35.875H21.875V37.625Z" fill="#F2F2F2"/>
<path d="M18.375 32.375H15.75C15.5179 32.375 15.2954 32.2828 15.1313 32.1187C14.9672 31.9546 14.875 31.7321 14.875 31.5V29.75H14V28H15.75C15.9821 28 16.2046 28.0922 16.3687 28.2563C16.5328 28.4204 16.625 28.6429 16.625 28.875V30.625H18.375V32.375Z" fill="#F2F2F2"/>
<path d="M21 35H17.5V33.25H20.125V30.625H21.875V34.125C21.875 34.3571 21.7828 34.5796 21.6187 34.7437C21.4546 34.9078 21.2321 35 21 35Z" fill="#F2F2F2"/>
<path d="M22.75 31.5H26.25V33.25H22.75V31.5Z" fill="#F2F2F2"/>
<path d="M18.375 27.125H21.875V28.875H18.375V27.125Z" fill="#F2F2F2"/>
<path d="M22.75 27.125H24.5V30.625H22.75V27.125Z" fill="#F2F2F2"/>
<path d="M36.5098 35.8442L38.8723 35.2536L47.6048 33.5036C47.8026 33.4632 47.9803 33.3557 48.1079 33.1993C48.2355 33.0428 48.305 32.8471 48.3048 32.6452V27.3952C48.3048 27.1632 48.2126 26.9406 48.0485 26.7765C47.8844 26.6124 47.6619 26.5202 47.4298 26.5202H39.5548V28.2702H46.5548V31.9286L39.266 33.3864L36.8852 26.2499C36.8272 26.0757 36.7158 25.9242 36.567 25.8168C36.4181 25.7094 36.2392 25.6515 36.0557 25.6514H32.5557V27.4014H35.4248L37.5519 33.7827L36.0845 34.1494C35.5283 34.2883 35.0421 34.6259 34.7176 35.0986C34.3931 35.5712 34.2526 36.1462 34.3228 36.7153C34.393 37.2843 34.6688 37.808 35.0985 38.1876C35.5281 38.5673 36.0817 38.7767 36.655 38.7764H37.3795C37.0899 39.1528 36.9322 39.614 36.9307 40.0889C36.9285 40.4368 37.0093 40.7802 37.1664 41.0906C37.3236 41.4011 37.5525 41.6695 37.8342 41.8737C38.1159 42.078 38.4422 42.212 38.7861 42.2649C39.13 42.3177 39.4815 42.2877 39.8115 42.1774C40.1415 42.0671 40.4404 41.8797 40.6835 41.6307C40.9265 41.3817 41.1067 41.0784 41.2089 40.7458C41.3112 40.4133 41.3327 40.0611 41.2716 39.7186C41.2105 39.3761 41.0686 39.0531 40.8577 38.7764H44.3795C44.0899 39.1528 43.9322 39.614 43.9307 40.0889C43.9285 40.4368 44.0093 40.7802 44.1664 41.0906C44.3236 41.4011 44.5525 41.6695 44.8342 41.8737C45.1159 42.078 45.4422 42.212 45.7861 42.2649C46.13 42.3177 46.4815 42.2877 46.8115 42.1774C47.1415 42.0671 47.4404 41.8797 47.6835 41.6307C47.9265 41.3817 48.1067 41.0784 48.2089 40.7458C48.3112 40.4133 48.3327 40.0611 48.2716 39.7186C48.2105 39.3761 48.0686 39.0531 47.8577 38.7764H48.3057V37.0264H36.655C36.5087 37.0268 36.3673 36.9735 36.2575 36.8767C36.1478 36.7799 36.0773 36.6463 36.0594 36.501C36.0416 36.3558 36.0775 36.209 36.1605 36.0885C36.2435 35.9679 36.3677 35.882 36.5098 35.8469V35.8442ZM39.1182 40.5237C39.0316 40.5237 38.947 40.4981 38.8751 40.45C38.8032 40.4019 38.7471 40.3336 38.714 40.2537C38.6809 40.1737 38.6722 40.0858 38.6891 40.0009C38.7059 39.916 38.7476 39.8381 38.8088 39.7769C38.87 39.7157 38.9479 39.674 39.0328 39.6572C39.1177 39.6403 39.2056 39.6489 39.2856 39.682C39.3655 39.7152 39.4339 39.7712 39.4819 39.8432C39.53 39.9151 39.5557 39.9997 39.5557 40.0862C39.5557 40.2023 39.5096 40.3136 39.4275 40.3956C39.3455 40.4776 39.2342 40.5237 39.1182 40.5237ZM46.1182 40.5237C46.0316 40.5237 45.947 40.4981 45.8751 40.45C45.8032 40.4019 45.7471 40.3336 45.714 40.2537C45.6809 40.1737 45.6722 40.0858 45.6891 40.0009C45.7059 39.916 45.7476 39.8381 45.8088 39.7769C45.87 39.7157 45.9479 39.674 46.0328 39.6572C46.1177 39.6403 46.2056 39.6489 46.2856 39.682C46.3655 39.7152 46.4339 39.7712 46.4819 39.8432C46.53 39.9151 46.5557 39.9997 46.5557 40.0862C46.5557 40.2023 46.5096 40.3136 46.4275 40.3956C46.3455 40.4776 46.2342 40.5237 46.1182 40.5237Z" fill="#9CCBF2"/>
</svg>
