<svg width="66" height="66" viewBox="0 0 66 66" fill="none" xmlns="http://www.w3.org/2000/svg">
<path d="M65.4844 51.3923H0.515625C0.230871 51.3923 0 51.1615 0 50.8767V0.515625C0 0.230871 0.230871 0 0.515625 0H65.4844C65.7691 0 66 0.230871 66 0.515625V50.8767C66 51.1615 65.7691 51.3923 65.4844 51.3923Z" fill="#D8D5ED"/>
<path d="M33 51.3922H0.515625C0.230871 51.3922 0 51.1613 0 50.8766V10.6235H33V51.3922Z" fill="#4FC6F5"/>
<path d="M66 10.6237H0V0.515625C0 0.230871 0.230871 0 0.515625 0H65.4844C65.7691 0 66 0.230871 66 0.515625V10.6237Z" fill="#50536E"/>
<path d="M6.1082 7.23739C7.20834 7.23739 8.10019 6.34555 8.10019 5.24541C8.10019 4.14526 7.20834 3.25342 6.1082 3.25342C5.00805 3.25342 4.11621 4.14526 4.11621 5.24541C4.11621 6.34555 5.00805 7.23739 6.1082 7.23739Z" fill="#FF2C5C"/>
<path d="M14.076 7.23739C15.1761 7.23739 16.068 6.34555 16.068 5.24541C16.068 4.14526 15.1761 3.25342 14.076 3.25342C12.9758 3.25342 12.084 4.14526 12.084 5.24541C12.084 6.34555 12.9758 7.23739 14.076 7.23739Z" fill="#FFD659"/>
<path d="M22.0437 7.23739C23.1439 7.23739 24.0357 6.34555 24.0357 5.24541C24.0357 4.14526 23.1439 3.25342 22.0437 3.25342C20.9436 3.25342 20.0518 4.14526 20.0518 5.24541C20.0518 6.34555 20.9436 7.23739 22.0437 7.23739Z" fill="#4FC6F5"/>
<path d="M38.0352 30.9028H60.8762C61.4102 30.9028 61.843 30.4701 61.843 29.936C61.843 29.402 61.4102 28.9692 60.8762 28.9692H38.0352C37.5011 28.9692 37.0684 29.402 37.0684 29.936C37.0684 30.4701 37.5011 30.9028 38.0352 30.9028Z" fill="#50536E"/>
<path d="M38.0352 25.2798H49.4557C49.9898 25.2798 50.4225 24.847 50.4225 24.313C50.4225 23.7789 49.9898 23.3462 49.4557 23.3462H38.0352C37.5011 23.3462 37.0684 23.7789 37.0684 24.313C37.0684 24.847 37.5011 25.2798 38.0352 25.2798Z" fill="#50536E"/>
<path d="M60.8762 33.7271H38.0352C37.5011 33.7271 37.0684 34.1598 37.0684 34.6938C37.0684 35.2279 37.5011 35.6606 38.0352 35.6606H60.8762C61.4102 35.6606 61.843 35.2279 61.843 34.6938C61.843 34.1598 61.4102 33.7271 60.8762 33.7271Z" fill="#50536E"/>
<path d="M60.8762 38.4849H38.0352C37.5011 38.4849 37.0684 38.9176 37.0684 39.4517C37.0684 39.9857 37.5011 40.4185 38.0352 40.4185H60.8762C61.4102 40.4185 61.843 39.9857 61.843 39.4517C61.843 38.9176 61.4102 38.4849 60.8762 38.4849Z" fill="#50536E"/>
<path d="M9.89355 55.832C9.89355 56.3723 10.3286 56.8102 10.8653 56.8102H27.3206C29.7058 56.8102 32.0519 57.4203 34.1386 58.5833C36.2254 59.7463 38.5715 60.3564 40.9566 60.3564H56.1068V58.0751C56.1068 54.2011 52.9872 51.0605 49.1388 51.0605H14.6334C12.0157 51.0605 9.89355 53.1968 9.89355 55.832Z" fill="#E89776"/>
<path d="M16.5007 29.7577C19.9583 29.7577 22.7612 26.9548 22.7612 23.4973C22.7612 20.0397 19.9583 17.2368 16.5007 17.2368C13.0431 17.2368 10.2402 20.0397 10.2402 23.4973C10.2402 26.9548 13.0431 29.7577 16.5007 29.7577Z" fill="#FF2C5C"/>
<path d="M16.5008 17.2368C15.804 17.2368 15.1348 17.3523 14.5088 17.5624C16.9893 18.3948 18.7773 20.7365 18.7773 23.4973C18.7773 26.2581 16.9893 28.5999 14.5088 29.4321C15.1348 29.6421 15.804 29.7576 16.5008 29.7576C19.9583 29.7576 22.7611 26.9548 22.7611 23.4973C22.7612 20.0398 19.9583 17.2368 16.5008 17.2368Z" fill="#E62753"/>
<path d="M22.6614 42.734H10.3404C8.46209 42.734 6.93945 41.2114 6.93945 39.3331V39.3192C6.93945 34.0385 11.2202 29.7578 16.5008 29.7578C21.7815 29.7578 26.0622 34.0385 26.0622 39.3192V39.3331C26.0622 41.2114 24.5395 42.734 22.6614 42.734Z" fill="#FFD659"/>
<path d="M16.5008 29.7578C15.8174 29.7578 15.1515 29.8308 14.5088 29.967C18.8331 30.8837 22.0782 34.7219 22.0782 39.3192V39.3331C22.0782 41.2114 20.5555 42.734 18.6772 42.734H22.6611C24.5394 42.734 26.062 41.2114 26.062 39.3331V39.3192C26.0623 34.0385 21.7814 29.7578 16.5008 29.7578Z" fill="#FFBD54"/>
<path d="M14.8713 22.6406C15.3428 22.6406 15.7251 22.2584 15.7251 21.7868C15.7251 21.3153 15.3428 20.9331 14.8713 20.9331C14.3998 20.9331 14.0176 21.3153 14.0176 21.7868C14.0176 22.2584 14.3998 22.6406 14.8713 22.6406Z" fill="#50536E"/>
<path d="M18.1301 22.6406C18.6016 22.6406 18.9839 22.2584 18.9839 21.7868C18.9839 21.3153 18.6016 20.9331 18.1301 20.9331C17.6586 20.9331 17.2764 21.3153 17.2764 21.7868C17.2764 22.2584 17.6586 22.6406 18.1301 22.6406Z" fill="#50536E"/>
<path d="M44.0917 48.7988H29.4722C27.3663 48.7988 25.6592 50.5059 25.6592 52.6119C25.6592 53.0047 25.9711 53.3258 26.3638 53.3365C28.6507 53.3987 35.8313 53.6876 37.777 54.8842C40.1012 56.3137 43.9594 60.356 46.6782 60.356C49.3971 60.356 56.1068 60.356 56.1068 60.356C56.1068 60.356 58.6962 48.7988 44.0917 48.7988Z" fill="#EBAD88"/>
<path d="M44.0913 48.7988H40.1074C54.7119 48.7988 52.1223 60.356 52.1223 60.356C54.2657 60.356 56.1061 60.356 56.1061 60.356C56.1061 60.356 58.6957 48.7988 44.0913 48.7988Z" fill="#E89776"/>
<path d="M62.2015 66H45.0546C44.8657 66 44.6919 65.8967 44.6017 65.7309L42.0143 60.9786C41.847 60.6711 42.028 60.2899 42.3719 60.2252L57.5679 57.3683C57.7803 57.3283 57.9952 57.4253 58.1059 57.6109L62.6443 65.2202C62.8494 65.5639 62.6018 66 62.2015 66Z" fill="#FF2C5C"/>
<path d="M57.5683 57.3683L54.3398 57.9752L59.1259 66H62.2018C62.602 66 62.8497 65.5639 62.6446 65.2202L58.1062 57.6109C57.9956 57.4253 57.7807 57.3283 57.5683 57.3683Z" fill="#E62753"/>
</svg>
