<svg width="59" height="59" viewBox="0 0 59 59" fill="none" xmlns="http://www.w3.org/2000/svg">
<path d="M16.3125 20.8735H6.34375V37.186H9.96875V30.8423H11.7812V24.4985H16.3125V20.8735Z" fill="#6A7073"/>
<path d="M2.71875 14.5298C2.21827 14.5298 1.8125 14.124 1.8125 13.6235V2.74854C1.8125 2.24806 2.21827 1.84229 2.71875 1.84229H13.5938C14.0942 1.84229 14.5 2.24806 14.5 2.74854C14.5 3.24901 14.0942 3.65479 13.5938 3.65479H3.625V13.6235C3.625 14.124 3.21923 14.5298 2.71875 14.5298Z" fill="#3397E8"/>
<path d="M13.5938 56.2173H2.71875C2.21827 56.2173 1.8125 55.8115 1.8125 55.311V44.5493C1.8125 44.0488 2.21827 43.6431 2.71875 43.6431C3.21923 43.6431 3.625 44.0488 3.625 44.5493V54.4048H13.5938C14.0942 54.4048 14.5 54.8106 14.5 55.311C14.5 55.8115 14.0942 56.2173 13.5938 56.2173Z" fill="#3397E8"/>
<path d="M55.2812 56.2173H44.5195C44.0191 56.2173 43.6133 55.8115 43.6133 55.311C43.6133 54.8106 44.0191 54.4048 44.5195 54.4048H54.375V44.5493C54.375 44.0488 54.7808 43.6431 55.2812 43.6431C55.7817 43.6431 56.1875 44.0488 56.1875 44.5493V55.311C56.1875 55.8115 55.7817 56.2173 55.2812 56.2173Z" fill="#3397E8"/>
<path d="M55.2812 14.5298C54.7808 14.5298 54.375 14.124 54.375 13.6235V3.65479H44.5195C44.0191 3.65479 43.6133 3.24901 43.6133 2.74854C43.6133 2.24806 44.0191 1.84229 44.5195 1.84229H55.2812C55.7817 1.84229 56.1875 2.24806 56.1875 2.74854V13.6235C56.1875 14.124 55.7817 14.5298 55.2812 14.5298Z" fill="#3397E8"/>
<path d="M9.94922 9.99854H13.5937V13.6235H9.94922V9.99854Z" fill="#6A7073"/>
<path d="M9.94922 44.436H13.5937V48.061H9.94922V44.436Z" fill="#6A7073"/>
<path d="M44.3867 9.99854H48.0312V13.6235H44.3867V9.99854Z" fill="#6A7073"/>
<path d="M45.3125 20.8735H51.6562V27.2173H45.3125V20.8735Z" fill="#6A7073"/>
<path d="M51.6562 30.8423V37.186H46.2188V42.6235H42.5938V38.9985H38.0625V33.561L40.7812 30.8423H44.4062H51.6562Z" fill="#6A7073"/>
<path d="M21.75 13.6235H26.2812V10.9048H37.1562V6.37354H28.0938V7.27979H25.375V6.37354H20.8438V9.09229H21.75V13.6235Z" fill="#6A7073"/>
<path d="M38.0625 46.2485V50.7798H34.4375V49.8735H30.8125V51.686H27.1875V48.9673H21.75V42.6235H26.2812V45.3423H32.625V46.2485H38.0625Z" fill="#6A7073"/>
<path d="M49.8438 43.5298C49.3433 43.5298 48.9375 43.124 48.9375 42.6235V40.811C48.9375 40.3106 49.3433 39.9048 49.8438 39.9048C50.3442 39.9048 50.75 40.3106 50.75 40.811V42.6235C50.75 43.124 50.3442 43.5298 49.8438 43.5298Z" fill="#6A7073"/>
<path d="M14.5 36.2798V35.3735C14.5 34.8731 14.0942 34.4673 13.5938 34.4673C13.0933 34.4673 12.6875 34.8731 12.6875 35.3735V37.186C12.6875 37.6865 13.0933 38.0923 13.5938 38.0923H14.5C15.0005 38.0923 15.4062 37.6865 15.4062 37.186C15.4062 36.6856 15.0005 36.2798 14.5 36.2798Z" fill="#6A7073"/>
<path d="M17.2188 18.1548H6.34375C5.84327 18.1548 5.4375 17.749 5.4375 17.2485V6.37354C5.4375 5.87306 5.84327 5.46729 6.34375 5.46729H17.2188C17.7192 5.46729 18.125 5.87306 18.125 6.37354V17.2485C18.125 17.749 17.7192 18.1548 17.2188 18.1548ZM7.25 16.3423H16.3125V7.27979H7.25V16.3423Z" fill="#6A7073"/>
<path d="M17.2188 52.5923H6.34375C5.84327 52.5923 5.4375 52.1865 5.4375 51.686V40.811C5.4375 40.3106 5.84327 39.9048 6.34375 39.9048H17.2188C17.7192 39.9048 18.125 40.3106 18.125 40.811V51.686C18.125 52.1865 17.7192 52.5923 17.2188 52.5923ZM7.25 50.7798H16.3125V41.7173H7.25V50.7798Z" fill="#6A7073"/>
<path d="M51.6562 18.1548H40.7812C40.2808 18.1548 39.875 17.749 39.875 17.2485V6.37354C39.875 5.87306 40.2808 5.46729 40.7812 5.46729H51.6562C52.1567 5.46729 52.5625 5.87306 52.5625 6.37354V17.2485C52.5625 17.749 52.1567 18.1548 51.6562 18.1548ZM41.6875 16.3423H50.75V7.27979H41.6875V16.3423Z" fill="#6A7073"/>
<path d="M29 42.6235C36.5076 42.6235 42.5938 36.5374 42.5938 29.0298C42.5938 21.5222 36.5076 15.436 29 15.436C21.4924 15.436 15.4062 21.5222 15.4062 29.0298C15.4062 36.5374 21.4924 42.6235 29 42.6235Z" fill="#3397E8"/>
<path d="M30.8125 26.311V21.7798L38.0625 29.0298L30.8125 36.2798V31.7485C30.8125 31.7485 21.75 30.8423 21.75 36.2798C21.75 36.2798 20.8437 26.311 30.8125 26.311Z" fill="#E9EEF2"/>
<path d="M45.3125 47.1548V48.9673H41.6875V52.5923H52.5625V47.1548H45.3125Z" fill="#6A7073"/>
</svg>
