<svg width="58" height="58" viewBox="0 0 58 58" fill="none" xmlns="http://www.w3.org/2000/svg">
<path d="M50.2035 34.0453L40.071 23.9127C38.412 22.2537 35.7222 22.2537 34.0633 23.9127C32.4044 25.5717 32.4044 28.2613 34.0633 29.9204L41.8733 37.7303L25.0352 39.1728V44.4379C25.0352 47.847 26.7467 50.9449 29.5664 52.7552V56.3008C29.5664 57.2393 30.3272 58.0001 31.2656 58.0001H51.6562C52.5947 58.0001 53.3555 57.2393 53.3555 56.3008V41.6547C53.3555 38.8007 52.2218 36.0635 50.2035 34.0453Z" fill="#FFDECF"/>
<path d="M40.071 23.9128C39.8032 23.645 39.5082 23.421 39.1953 23.2397V35.0525L41.8732 37.7305L39.1953 37.9597V58.0001H51.6562C52.5947 58.0001 53.3555 57.2393 53.3555 56.3009V41.6547C53.3555 38.8006 52.2216 36.0634 50.2035 34.0452L40.071 23.9128Z" fill="#FFCDBE"/>
<path d="M51.7695 39.6484H6.23047C2.79499 39.6484 0 36.8535 0 33.418V6.23047C0 2.79499 2.79499 0 6.23047 0H51.7695C55.205 0 58 2.79499 58 6.23047V33.418C58 36.8535 55.205 39.6484 51.7695 39.6484Z" fill="#FF8859"/>
<path d="M51.7695 0H29V39.6484H51.7695C55.205 39.6484 58 36.8535 58 33.418V6.23047C58 2.79499 55.205 0 51.7695 0Z" fill="#FF3939"/>
<path d="M49.3906 16.9922H38.0625C37.1241 16.9922 36.3633 16.2314 36.3633 15.293V8.49609C36.3633 7.55767 37.1241 6.79688 38.0625 6.79688H49.3906C50.329 6.79688 51.0898 7.55767 51.0898 8.49609V15.293C51.0898 16.2314 50.329 16.9922 49.3906 16.9922Z" fill="#FFDA44"/>
<path d="M25.86 9.30464L21.6531 11.8289L19.1288 7.62185C18.4689 6.52188 16.8747 6.52188 16.2147 7.62185L13.6904 11.8289L9.48363 9.30464C8.18554 8.52583 6.59371 9.7052 6.96086 11.1738L9.22648 20.2363H26.1172L28.3828 11.1738C28.7499 9.7052 27.1582 8.52572 25.86 9.30464Z" fill="#FFDA44"/>
<path d="M26.1172 20.2363L28.3828 11.1738C28.75 9.70514 27.1583 8.52577 25.8601 9.3047L21.6531 11.8289L19.1289 7.6219C18.799 7.07181 18.2354 6.79688 17.6719 6.79688V20.2363H26.1172Z" fill="#FF9F22"/>
<path d="M9.17578 19.8242V24.3555C9.17578 29.0477 12.9797 32.8516 17.6719 32.8516C22.3641 32.8516 26.168 29.0477 26.168 24.3555V19.8242H9.17578Z" fill="#FFDECF"/>
<path d="M17.6719 32.8516C22.3641 32.8516 26.168 29.0477 26.168 24.3555V19.8242H17.6719V32.8516Z" fill="#FFCDBE"/>
<path d="M26.7344 21.5234H8.60938C7.67095 21.5234 6.91016 20.7626 6.91016 19.8242C6.91016 18.8858 7.67095 18.125 8.60938 18.125H26.7344C27.6728 18.125 28.4336 18.8858 28.4336 19.8242C28.4336 20.7626 27.6728 21.5234 26.7344 21.5234Z" fill="#FFF47D"/>
<path d="M26.7344 18.125H17.6719V21.5234H26.7344C27.6728 21.5234 28.4336 20.7626 28.4336 19.8242C28.4336 18.8858 27.6728 18.125 26.7344 18.125Z" fill="#FFDA44"/>
<path d="M50.2037 34.0453L40.0712 23.9127C38.4121 22.2537 35.7224 22.2537 34.0635 23.9127C32.4046 25.5717 32.4046 28.2613 34.0635 29.9204L41.8735 37.7303C40.1233 40.5388 39.1955 43.7816 39.1955 47.0907V58.0001H51.6564C52.5948 58.0001 53.3556 57.2393 53.3556 56.3008V41.6547C53.3556 38.8007 52.2219 36.0635 50.2037 34.0453Z" fill="#FFDECF"/>
<path d="M40.071 23.9128C39.8032 23.645 39.5082 23.421 39.1953 23.2397V35.0525L41.8732 37.7305C40.1231 40.5388 39.1953 43.7816 39.1953 47.0908V58.0001H51.6562C52.5947 58.0001 53.3555 57.2393 53.3555 56.3009V41.6547C53.3555 38.8006 52.2216 36.0634 50.2035 34.0452L40.071 23.9128Z" fill="#FFBEAA"/>
</svg>
