<svg width="42" height="38" viewBox="0 0 42 38" fill="none" xmlns="http://www.w3.org/2000/svg">
<path fill-rule="evenodd" clip-rule="evenodd" d="M25.3251 21.8985L30.7048 27.2783C30.8939 27.4676 31.0001 27.7242 31 27.9917C30.9999 28.2592 30.8935 28.5157 30.7043 28.7048C30.5151 28.8939 30.2585 29.0001 29.991 29C29.7235 28.9999 29.467 28.8935 29.2779 28.7043L23.8981 23.3244C22.2899 24.5701 20.2676 25.1563 18.2425 24.9638C16.2175 24.7712 14.3418 23.8145 12.9971 22.2881C11.6524 20.7617 10.9397 18.7803 11.004 16.7471C11.0683 14.7139 11.9047 12.7815 13.343 11.3431C14.7814 9.90468 16.7138 9.06826 18.7469 9.004C20.7801 8.93974 22.7614 9.65246 24.2877 10.9972C25.8141 12.3419 26.7708 14.2176 26.9634 16.2427C27.1559 18.2678 26.5697 20.2902 25.3241 21.8985H25.3251ZM19.0004 22.9994C20.5916 22.9994 22.1176 22.3673 23.2428 21.2421C24.368 20.1169 25.0001 18.5908 25.0001 16.9996C25.0001 15.4083 24.368 13.8822 23.2428 12.757C22.1176 11.6318 20.5916 10.9997 19.0004 10.9997C17.4091 10.9997 15.8831 11.6318 14.7579 12.757C13.6328 13.8822 13.0007 15.4083 13.0007 16.9996C13.0007 18.5908 13.6328 20.1169 14.7579 21.2421C15.8831 22.3673 17.4091 22.9994 19.0004 22.9994Z" fill="#022B5B"/>
</svg>
