<svg width="60" height="60" viewBox="0 0 60 60" fill="none" xmlns="http://www.w3.org/2000/svg">
<g clip-path="url(#clip0_7_1838)">
<path d="M59.091 4.54554C59.091 2.53645 57.4637 0.90918 55.4546 0.90918H4.54554C2.53645 0.90918 0.90918 2.53645 0.90918 4.54554V12.8274H59.091V4.54554Z" fill="#6E6ECE"/>
<path d="M0.90918 12.8274V55.4547C0.90918 57.4638 2.53645 59.091 4.54554 59.091H55.4546C57.4637 59.091 59.091 57.4638 59.091 55.4547V12.8274H0.90918Z" fill="#CAEAE9"/>
<path d="M46.0632 19.9182C43.4451 17.3 39.2178 17.3 36.6087 19.9182L31.6814 24.8364C29.0723 27.4546 29.0723 31.6819 31.6814 34.291C34.2996 36.9091 38.5269 36.9091 41.136 34.291L46.0632 29.3637C47.3723 28.0546 48.0178 26.3546 48.0269 24.6364C48.0178 22.9273 47.3723 21.2273 46.0632 19.9182ZM43.2905 26.591L38.3632 31.5182C37.836 32.0455 37.1451 32.3273 36.4087 32.3273C35.6723 32.3273 34.9814 32.0364 34.4542 31.5182C33.3814 30.4455 33.3814 28.691 34.4542 27.6091L39.3814 22.691C39.9087 22.1637 40.5996 21.8819 41.336 21.8819C42.0723 21.8819 42.7632 22.1637 43.2905 22.691C43.9542 23.3546 44.0996 24.1273 44.0996 24.6546C44.0996 25.3728 43.8087 26.0728 43.2905 26.591Z" fill="#F56356"/>
<path d="M28.3002 37.6729C25.6911 35.0638 21.4639 35.0638 18.8548 37.6729L13.9275 42.6002C11.3093 45.2092 11.3093 49.4365 13.9275 52.0547C16.5366 54.6638 20.7639 54.6638 23.373 52.0547L28.3002 47.1274C29.6093 45.8183 30.2639 44.1092 30.2639 42.4002C30.2639 40.682 29.6093 38.982 28.3002 37.6729ZM25.5366 44.3547L20.6093 49.2729C20.0911 49.8002 19.4002 50.0911 18.6639 50.0911C17.9275 50.0911 17.2275 49.8002 16.7093 49.2729C16.182 48.7547 15.9002 48.0638 15.9002 47.3274C15.9002 46.5911 16.182 45.9002 16.7093 45.3729L21.6366 40.4456C22.1548 39.9274 22.8457 39.6365 23.5821 39.6365C24.3184 39.6365 25.0184 39.9274 25.5366 40.4456C26.2093 41.1183 26.3548 41.882 26.3548 42.4092C26.3457 43.1274 26.0639 43.8274 25.5366 44.3547Z" fill="#F56356"/>
<path d="M37.5087 42.209C37.1541 41.8545 36.5814 41.8545 36.2268 42.209C35.8723 42.5636 35.8723 43.1363 36.2268 43.4908L39.6996 46.9636C39.8814 47.1454 40.1087 47.2272 40.345 47.2272C40.5814 47.2272 40.8087 47.1363 40.9905 46.9636C41.345 46.609 41.345 46.0363 40.9905 45.6818L37.5087 42.209Z" fill="#5BBCB9"/>
<path d="M44.6456 39.0908H39.7275C39.2275 39.0908 38.8184 39.4999 38.8184 39.9999C38.8184 40.4999 39.2275 40.909 39.7275 40.909H44.6456C45.1456 40.909 45.5547 40.4999 45.5547 39.9999C45.5547 39.4999 45.1456 39.0908 44.6456 39.0908Z" fill="#5BBCB9"/>
<path d="M34.0185 44.8C33.5185 44.8 33.1094 45.2091 33.1094 45.7091V50.6273C33.1094 51.1273 33.5185 51.5364 34.0185 51.5364C34.5185 51.5364 34.9276 51.1273 34.9276 50.6273V45.7091C34.9276 45.2091 34.5185 44.8 34.0185 44.8Z" fill="#5BBCB9"/>
<path d="M20.2909 24.9908C19.9363 24.6362 19.3636 24.6362 19.0091 24.9908C18.6545 25.3453 18.6545 25.918 19.0091 26.2726L22.4818 29.7453C22.6636 29.9271 22.8909 30.0089 23.1273 30.0089C23.3636 30.0089 23.5909 29.918 23.7727 29.7453C24.1273 29.3908 24.1273 28.818 23.7727 28.4635L20.2909 24.9908Z" fill="#5BBCB9"/>
<path d="M20.2726 31.0544H15.3544C14.8544 31.0544 14.4453 31.4635 14.4453 31.9635C14.4453 32.4635 14.8544 32.8726 15.3544 32.8726H20.2726C20.7726 32.8726 21.1817 32.4635 21.1817 31.9635C21.1817 31.4635 20.7726 31.0544 20.2726 31.0544Z" fill="#5BBCB9"/>
<path d="M25.9814 20.4272C25.4814 20.4272 25.0723 20.8363 25.0723 21.3363V26.2545C25.0723 26.7545 25.4814 27.1636 25.9814 27.1636C26.4814 27.1636 26.8904 26.7545 26.8904 26.2545V21.3363C26.8904 20.8363 26.4814 20.4272 25.9814 20.4272Z" fill="#5BBCB9"/>
<path d="M8.43665 5.96362H6.51847C6.01847 5.96362 5.60938 6.37271 5.60938 6.87271C5.60938 7.37271 6.01847 7.78181 6.51847 7.78181H8.43665C8.93665 7.78181 9.34574 7.37271 9.34574 6.87271C9.34574 6.37271 8.93665 5.96362 8.43665 5.96362Z" fill="#BCE1F0"/>
<path d="M13.6915 5.96362H11.7733C11.2733 5.96362 10.8643 6.37271 10.8643 6.87271C10.8643 7.37271 11.2733 7.78181 11.7733 7.78181H13.6915C14.1915 7.78181 14.6006 7.37271 14.6006 6.87271C14.6006 6.37271 14.1915 5.96362 13.6915 5.96362Z" fill="#BCE1F0"/>
<path d="M18.9366 5.96362H17.0185C16.5185 5.96362 16.1094 6.37271 16.1094 6.87271C16.1094 7.37271 16.5185 7.78181 17.0185 7.78181H18.9366C19.4366 7.78181 19.8457 7.37271 19.8457 6.87271C19.8457 6.37271 19.4457 5.96362 18.9366 5.96362Z" fill="#BCE1F0"/>
<path d="M53.3368 5.96362H31.8095C31.3095 5.96362 30.9004 6.37271 30.9004 6.87271C30.9004 7.37271 31.3095 7.78181 31.8095 7.78181H53.3368C53.8368 7.78181 54.2458 7.37271 54.2458 6.87271C54.2458 6.37271 53.8368 5.96362 53.3368 5.96362Z" fill="#BCE1F0"/>
<path d="M18.0276 17.8455H6.28214C5.78214 17.8455 5.37305 18.2545 5.37305 18.7545C5.37305 19.2545 5.78214 19.6636 6.28214 19.6636H18.0276C18.5276 19.6636 18.9367 19.2545 18.9367 18.7545C18.9367 18.2545 18.5367 17.8455 18.0276 17.8455Z" fill="#726F82"/>
<path d="M13.9275 22.1545H12.4911C11.9911 22.1545 11.582 22.5636 11.582 23.0636C11.582 23.5636 11.9911 23.9727 12.4911 23.9727H13.9275C14.4275 23.9727 14.8366 23.5636 14.8366 23.0636C14.8366 22.5636 14.4275 22.1545 13.9275 22.1545Z" fill="#726F82"/>
<path d="M9.40032 22.1545H6.28214C5.78214 22.1545 5.37305 22.5636 5.37305 23.0636C5.37305 23.5636 5.78214 23.9727 6.28214 23.9727H9.40032C9.90032 23.9727 10.3094 23.5636 10.3094 23.0636C10.3094 22.5636 9.90032 22.1545 9.40032 22.1545Z" fill="#726F82"/>
<path opacity="0.12" d="M46.0638 19.9184C45.782 19.6365 45.4729 19.382 45.1547 19.1638C45.9547 20.3093 46.3547 21.6365 46.3638 22.9638C46.3547 24.682 45.7093 26.382 44.4002 27.6911L39.4729 32.6184C37.1456 34.9456 33.5456 35.2002 30.9365 33.382C31.1638 33.7002 31.4093 34.0093 31.6911 34.2911C34.3093 36.9093 38.5365 36.9093 41.1456 34.2911L46.0729 29.3638C47.382 28.0547 48.0274 26.3547 48.0365 24.6365C48.0183 22.9275 47.3729 21.2275 46.0638 19.9184Z" fill="black"/>
<path opacity="0.12" d="M28.3004 37.6728C28.0186 37.3909 27.7095 37.1364 27.3913 36.9182C28.1913 38.0637 28.5913 39.3909 28.5913 40.7273C28.5913 42.4364 27.9368 44.1455 26.6277 45.4546L21.7004 50.3818C19.3732 52.7091 15.7732 52.9546 13.1641 51.1364C13.3913 51.4546 13.6368 51.7637 13.9277 52.0546C16.5368 54.6637 20.7641 54.6637 23.3732 52.0546L28.3004 47.1273C29.6095 45.8182 30.2641 44.1091 30.2641 42.4C30.2641 40.6818 29.6095 38.9818 28.3004 37.6728Z" fill="black"/>
<path d="M22.0725 44.5455C21.8361 44.5455 21.6089 44.4546 21.427 44.2819C21.0725 43.9273 21.0725 43.3546 21.427 43L37.2725 27.1546C37.627 26.8 38.1998 26.8 38.5543 27.1546C38.9089 27.5091 38.9089 28.0819 38.5543 28.4364L22.718 44.2819C22.5361 44.4637 22.3089 44.5455 22.0725 44.5455Z" fill="#726F82"/>
<path opacity="0.12" d="M55.4546 0.90918H54.5455V50.9092C54.5455 52.9183 52.9183 54.5455 50.9092 54.5455H0.90918V55.4546C0.90918 57.4637 2.53645 59.091 4.54554 59.091H55.4546C57.4637 59.091 59.091 57.4637 59.091 55.4546V4.54554C59.091 2.53645 57.4637 0.90918 55.4546 0.90918Z" fill="black"/>
</g>
<defs>
<clipPath id="clip0_7_1838">
<rect width="60" height="60" fill="white"/>
</clipPath>
</defs>
</svg>
