<svg width="49" height="49" viewBox="0 0 49 49" fill="none" xmlns="http://www.w3.org/2000/svg">
<path d="M24.7502 1.52649C12.1057 1.33759 1.6275 11.5949 1.55133 24.2333C1.52568 27.6449 2.26707 31.0187 3.7207 34.1052C3.92828 34.5463 3.98863 35.0425 3.89285 35.5205L1.5498 47.2296L13.2559 44.8881C13.7339 44.7923 14.2301 44.8527 14.6712 45.0602C17.7577 46.5139 21.1314 47.2553 24.543 47.2296C37.1876 47.1534 47.4388 36.6661 47.2423 24.0292C47.1523 18.091 44.7541 12.421 40.5556 8.2206C36.3572 4.02017 30.6884 1.61925 24.7502 1.52649Z" fill="#99CC33"/>
<path d="M24.4014 37.0225C21.9005 37.0225 19.4558 36.2809 17.3764 34.8915C15.2971 33.5021 13.6764 31.5273 12.7193 29.2168C11.7623 26.9063 11.5119 24.3639 11.9998 21.9111C12.4877 19.4583 13.692 17.2053 15.4603 15.4369C17.2287 13.6685 19.4817 12.4643 21.9345 11.9764C24.3873 11.4885 26.9297 11.7389 29.2402 12.6959C31.5507 13.6529 33.5255 15.2736 34.9149 17.353C36.3043 19.4324 37.0459 21.8771 37.0459 24.3779C37.0423 27.7304 35.7089 30.9444 33.3384 33.315C30.9679 35.6855 27.7538 37.0188 24.4014 37.0225Z" fill="white"/>
<path d="M29.7334 29.7023C29.8325 29.6033 29.911 29.4858 29.9646 29.3564C30.0182 29.227 30.0458 29.0883 30.0458 28.9482C30.0458 28.8082 30.0182 28.6695 29.9646 28.5401C29.911 28.4107 29.8325 28.2932 29.7334 28.1941L25.4678 23.9361V16.7607C25.4678 16.4779 25.3554 16.2067 25.1555 16.0067C24.9555 15.8067 24.6842 15.6943 24.4014 15.6943C24.1186 15.6943 23.8473 15.8067 23.6473 16.0067C23.4473 16.2067 23.335 16.4779 23.335 16.7607V24.3779C23.3329 24.6597 23.4425 24.9308 23.6397 25.132L28.21 29.7023C28.309 29.8014 28.4266 29.8799 28.556 29.9335C28.6854 29.9871 28.824 30.0147 28.9641 30.0147C29.1041 30.0147 29.2428 29.9871 29.3722 29.9335C29.5016 29.8799 29.6192 29.8014 29.7182 29.7023H29.7334Z" fill="#00954C"/>
<path d="M1.54954 48.7529C1.32349 48.7532 1.1002 48.7032 0.895876 48.6065C0.691554 48.5097 0.511319 48.3687 0.36824 48.1937C0.225162 48.0187 0.122828 47.814 0.0686576 47.5946C0.0144877 47.3751 0.00984088 47.1463 0.055053 46.9248L2.39658 35.2187C2.42876 35.0608 2.40899 34.8968 2.34021 34.751C-5.34706 18.4365 6.88158 -0.269749 24.7728 0.00294659C31.1097 0.0965622 37.1608 2.65553 41.6422 7.13688C46.1235 11.6182 48.6825 17.6693 48.7761 24.0062C49.0412 41.8883 30.3425 54.1337 14.0219 46.4388C13.8762 46.3701 13.7121 46.3503 13.5542 46.3825L1.85423 48.724C1.7539 48.7439 1.65182 48.7536 1.54954 48.7529ZM15.3214 43.6829C29.6036 50.4135 45.9608 39.6885 45.7292 24.0519C45.6725 18.4994 43.4416 13.1903 39.5152 9.2639C35.5887 5.33746 30.2796 3.10654 24.7271 3.04982C9.12865 2.81064 -1.64967 19.1419 5.09611 33.4576C5.44136 34.195 5.54223 35.0233 5.38404 35.822L3.4904 45.2871L12.9555 43.3935C13.7548 43.2353 14.5838 43.3368 15.3214 43.6829Z" fill="#00954C"/>
</svg>
