<svg width="60" height="60" viewBox="0 0 60 60" fill="none" xmlns="http://www.w3.org/2000/svg">
<path d="M48.6208 0H11.3794C8.5228 0 6.20703 2.31577 6.20703 5.17241V54.8276C6.20703 57.6842 8.5228 60 11.3794 60H48.6208C51.4775 60 53.7932 57.6842 53.7932 54.8276V5.17241C53.7932 2.31577 51.4775 0 48.6208 0Z" fill="#EBEFF0"/>
<path d="M35.1723 24.8276C35.1725 25.2353 35.1518 25.6427 35.1102 26.0483L24.8896 37.0552C24.1861 37.1801 23.473 37.2424 22.7585 37.2414C19.821 37.251 16.9771 36.2088 14.7413 34.3035C12.229 32.1775 10.6627 29.1416 10.3861 25.8621C10.3551 25.5207 10.3447 25.1793 10.3447 24.8276C10.3447 24.4759 10.3551 24.1345 10.3861 23.7931C10.8954 17.7549 15.6858 12.9645 21.724 12.4552C22.0654 12.4242 22.4068 12.4138 22.7585 12.4138C23.1102 12.4138 23.4516 12.4242 23.793 12.4552C30.2245 12.9965 35.1698 18.3734 35.1723 24.8276Z" fill="#1EA7CE"/>
<path d="M49.6557 38.2759C49.6557 38.6276 49.6454 38.969 49.6143 39.3103C49.1051 45.3486 44.3147 50.139 38.2764 50.6483C37.935 50.6793 37.5936 50.6896 37.2419 50.6896C36.8902 50.6896 36.5488 50.6793 36.2074 50.6483C30.1692 50.139 25.3788 45.3486 24.8695 39.3103C24.8385 38.969 24.8281 38.6276 24.8281 38.2759C24.8281 37.9241 24.8385 37.5827 24.8695 37.2414C25.3788 31.2031 30.1692 26.4127 36.2074 25.9034C36.5488 25.8724 36.8902 25.8621 37.2419 25.8621C37.5936 25.8621 37.935 25.8724 38.2764 25.9034C44.3147 26.4127 49.1051 31.2031 49.6143 37.2414C49.6454 37.5827 49.6557 37.9241 49.6557 38.2759Z" fill="#62B8CD"/>
<path d="M38.276 25.9034V27.931C38.276 28.5024 37.8128 28.9655 37.2415 28.9655C36.6702 28.9655 36.207 28.5024 36.207 27.931V25.9034C36.5484 25.8724 36.8898 25.8621 37.2415 25.8621C37.5932 25.8621 37.9346 25.8724 38.276 25.9034Z" fill="#3197D6"/>
<path d="M30.6622 31.6966C30.4644 31.8863 30.2018 31.9936 29.9277 31.9966C29.6532 31.9955 29.3899 31.888 29.1932 31.6966L27.7656 30.2587C28.2096 29.732 28.6975 29.244 29.2242 28.8L30.6622 30.2276C31.0656 30.6342 31.0656 31.29 30.6622 31.6966Z" fill="#3197D6"/>
<path d="M27.9316 38.2759C27.9316 38.8473 27.4684 39.3104 26.8971 39.3104H24.8695C24.8385 38.969 24.8281 38.6277 24.8281 38.2759C24.8281 37.9242 24.8385 37.5828 24.8695 37.2415H26.8971C27.4684 37.2415 27.9316 37.7046 27.9316 38.2759Z" fill="#3197D6"/>
<path d="M30.6622 46.3242L29.2242 47.7518C28.6975 47.3079 28.2096 46.8199 27.7656 46.2932L29.1932 44.8553C29.5989 44.4496 30.2565 44.4496 30.6622 44.8553C31.0678 45.2609 31.0678 45.9186 30.6622 46.3242Z" fill="#3197D6"/>
<path d="M38.276 48.6207V50.6482C37.9346 50.6793 37.5932 50.6896 37.2415 50.6896C36.8898 50.6896 36.5484 50.6793 36.207 50.6482V48.6207C36.207 48.0493 36.6702 47.5862 37.2415 47.5862C37.8128 47.5862 38.276 48.0493 38.276 48.6207Z" fill="#3197D6"/>
<path d="M46.7174 46.2932C46.2734 46.8199 45.7855 47.3079 45.2588 47.7518L43.8208 46.3242C43.4152 45.9186 43.4152 45.2609 43.8208 44.8553C44.2265 44.4496 44.8842 44.4496 45.2898 44.8553L46.7174 46.2932Z" fill="#3197D6"/>
<path d="M49.6562 38.2759C49.6562 38.6277 49.6458 38.969 49.6148 39.3104H47.5872C47.0159 39.3104 46.5527 38.8473 46.5527 38.2759C46.5527 37.7046 47.0159 37.2415 47.5872 37.2415H49.6148C49.6458 37.5828 49.6562 37.9242 49.6562 38.2759Z" fill="#3197D6"/>
<path d="M46.7177 30.2587L45.2901 31.6966C45.0934 31.888 44.8301 31.9955 44.5556 31.9966C44.2815 31.9936 44.0189 31.8863 43.8211 31.6966C43.4177 31.29 43.4177 30.6342 43.8211 30.2276L45.2591 28.8C45.7858 29.244 46.2737 29.732 46.7177 30.2587Z" fill="#3197D6"/>
<path d="M37.2415 37.2413C36.6702 37.2413 36.207 36.7781 36.207 36.2068V33.1033C36.207 32.532 36.6702 32.0688 37.2415 32.0688C37.8128 32.0688 38.276 32.532 38.276 33.1033V36.2068C38.276 36.7781 37.8128 37.2413 37.2415 37.2413Z" fill="#3D5C6D"/>
<path d="M39.1447 38.4932C38.6536 38.493 38.2303 38.1477 38.1316 37.6667C38.0328 37.1857 38.2858 36.7016 38.7371 36.508L44.075 34.2218C44.598 34.0064 45.197 34.2508 45.4198 34.7707C45.6427 35.2905 45.4068 35.8929 44.8902 36.1232L39.5512 38.4094C39.423 38.4652 39.2845 38.4937 39.1447 38.4932Z" fill="#3D5C6D"/>
<path d="M23.7936 12.4552V14.4828C23.7936 15.0541 23.3304 15.5173 22.7591 15.5173C22.1878 15.5173 21.7246 15.0541 21.7246 14.4828V12.4552C22.066 12.4242 22.4074 12.4138 22.7591 12.4138C23.1108 12.4138 23.4522 12.4242 23.7936 12.4552Z" fill="#1D80BD"/>
<path d="M16.1798 18.2484C15.982 18.4381 15.7193 18.5454 15.4453 18.5484C15.1708 18.5473 14.9075 18.4397 14.7108 18.2484L13.2832 16.8104C13.7271 16.2837 14.2151 15.7958 14.7418 15.3518L16.1798 16.7794C16.5832 17.186 16.5832 17.8418 16.1798 18.2484Z" fill="#1D80BD"/>
<path d="M13.4482 24.8277C13.4482 25.399 12.985 25.8622 12.4137 25.8622H10.3861C10.3551 25.5208 10.3447 25.1794 10.3447 24.8277C10.3447 24.476 10.3551 24.1346 10.3861 23.7932H12.4137C12.985 23.7932 13.4482 24.2564 13.4482 24.8277Z" fill="#1D80BD"/>
<path d="M16.1798 32.876L14.7418 34.3036C14.2151 33.8596 13.7271 33.3717 13.2832 32.8449L14.7108 31.407C15.1164 31.0014 15.7741 31.0014 16.1798 31.407C16.5854 31.8127 16.5854 32.4703 16.1798 32.876Z" fill="#1D80BD"/>
<path d="M32.2343 16.8104L30.8067 18.2484C30.61 18.4397 30.3467 18.5473 30.0722 18.5484C29.7981 18.5454 29.5355 18.4381 29.3377 18.2484C28.9343 17.8418 28.9343 17.186 29.3377 16.7794L30.7757 15.3518C31.3024 15.7958 31.7903 16.2837 32.2343 16.8104Z" fill="#1D80BD"/>
<path d="M20.6902 30.603C20.3413 30.6028 20.0161 30.4268 19.8251 30.1349C19.6341 29.843 19.6031 29.4744 19.7426 29.1547L20.984 26.3099C21.1318 25.971 21.4492 25.7367 21.8167 25.6953C22.1841 25.6538 22.5457 25.8116 22.7653 26.109C22.9849 26.4065 23.0291 26.7986 22.8812 27.1375L21.6399 29.9823C21.4751 30.3598 21.1021 30.6036 20.6902 30.603Z" fill="#34495F"/>
<path d="M24.6622 25.0448C24.1712 25.0447 23.7479 24.6994 23.6492 24.2184C23.5504 23.7374 23.8034 23.2532 24.2547 23.0597L29.5926 20.7734C29.9334 20.6216 30.3295 20.6649 30.6294 20.887C30.9292 21.109 31.0862 21.4753 31.0404 21.8456C30.9945 22.2158 30.7527 22.5327 30.4078 22.6748L25.0688 24.961C24.9406 25.0168 24.8021 25.0454 24.6622 25.0448Z" fill="#34495F"/>
<path d="M48.3177 19.9583C47.9138 19.5545 47.2589 19.5545 46.855 19.9583L46.5519 20.2614V17.5862C46.5484 14.731 44.2347 12.4172 41.3794 12.4138H37.2415C36.6702 12.4138 36.207 12.877 36.207 13.4483C36.207 14.0196 36.6702 14.4828 37.2415 14.4828H41.3794C43.0934 14.4828 44.4829 15.8722 44.4829 17.5862V20.2614L44.1798 19.9583C43.7739 19.5663 43.1287 19.5719 42.7296 19.9709C42.3306 20.3699 42.325 21.0152 42.717 21.4211L44.786 23.49C45.19 23.8939 45.8448 23.8939 46.2488 23.49L48.3177 21.4211C48.7216 21.0171 48.7216 20.3623 48.3177 19.9583Z" fill="#FF5261"/>
<path d="M22.7592 48.6207H18.6212C16.9073 48.6207 15.5178 47.2312 15.5178 45.5172V42.8421L15.8209 43.1452C16.2268 43.5372 16.872 43.5316 17.2711 43.1326C17.6701 42.7335 17.6757 42.0883 17.2837 41.6824L15.2147 39.6134C14.8107 39.2096 14.1559 39.2096 13.7519 39.6134L11.683 41.6824C11.2909 42.0883 11.2965 42.7335 11.6956 43.1326C12.0946 43.5316 12.7398 43.5372 13.1457 43.1452L13.4488 42.8421V45.5172C13.4523 48.3725 15.766 50.6862 18.6212 50.6896H22.7592C23.3305 50.6896 23.7937 50.2265 23.7937 49.6552C23.7937 49.0838 23.3305 48.6207 22.7592 48.6207Z" fill="#FF5261"/>
<path d="M53.7932 50.6897V54.8276C53.7932 57.6843 51.4775 60 48.6208 60H11.3794C8.5228 60 6.20703 57.6843 6.20703 54.8276V50.6897C6.20703 52.975 8.05965 54.8276 10.345 54.8276H49.6553C51.9406 54.8276 53.7932 52.975 53.7932 50.6897Z" fill="#3197D6"/>
<path d="M53.7932 5.17241V8.27586H6.20703V5.17241C6.20703 2.31577 8.5228 0 11.3794 0H48.6208C49.9926 0 51.3083 0.544949 52.2783 1.51496C53.2483 2.48498 53.7932 3.8006 53.7932 5.17241Z" fill="#3197D6"/>
<path d="M34.1379 5.17248H31.0345C30.4632 5.17248 30 4.70933 30 4.138C30 3.56667 30.4632 3.10352 31.0345 3.10352H34.1379C34.7093 3.10352 35.1724 3.56667 35.1724 4.138C35.1724 4.70933 34.7093 5.17248 34.1379 5.17248Z" fill="#1D80BD"/>
<path d="M26.8968 5.17248C27.4681 5.17248 27.9313 4.70933 27.9313 4.138C27.9313 3.56667 27.4681 3.10352 26.8968 3.10352C26.3255 3.10352 25.8623 3.56667 25.8623 4.138C25.8623 4.70933 26.3255 5.17248 26.8968 5.17248Z" fill="#245682"/>
<path d="M37.2418 40.3447C38.3845 40.3447 39.3108 39.4184 39.3108 38.2758C39.3108 37.1331 38.3845 36.2068 37.2418 36.2068C36.0992 36.2068 35.1729 37.1331 35.1729 38.2758C35.1729 39.4184 36.0992 40.3447 37.2418 40.3447Z" fill="#527580"/>
<path d="M22.7584 26.8965C23.9011 26.8965 24.8274 25.9702 24.8274 24.8275C24.8274 23.6849 23.9011 22.7585 22.7584 22.7585C21.6158 22.7585 20.6895 23.6849 20.6895 24.8275C20.6895 25.9702 21.6158 26.8965 22.7584 26.8965Z" fill="#3D5C6D"/>
</svg>
