<svg width="60" height="60" viewBox="0 0 60 60" fill="none" xmlns="http://www.w3.org/2000/svg">
<g clip-path="url(#clip0_2_1757)">
<g clip-path="url(#clip1_2_1757)">
<path fill-rule="evenodd" clip-rule="evenodd" d="M58.6557 2.34473H63.552C64.9024 2.34906 65.9966 3.44273 66.0004 4.79315V63.5516C65.9966 64.902 64.9024 65.9962 63.552 66H19.483C18.1326 65.9962 17.0389 64.902 17.0352 63.5516V58.6553L58.6557 2.34473Z" fill="#A9B0BB"/>
<path fill-rule="evenodd" clip-rule="evenodd" d="M58.6553 -2.55157V56.2068C58.6509 57.5573 57.5573 58.6509 56.2068 58.6553H12.1379C10.7875 58.6509 9.69379 57.5573 9.68945 56.2068V7.24158L21.931 -5H56.2068C57.5573 -4.99621 58.6509 -3.902 58.6553 -2.55157Z" fill="#E4E8EB"/>
<path fill-rule="evenodd" clip-rule="evenodd" d="M21.931 -5V4.79316C21.9272 6.14359 20.833 7.23725 19.4826 7.24158H9.68945L21.931 -5Z" fill="#5E8FAA"/>
<path fill-rule="evenodd" clip-rule="evenodd" d="M31.7242 45.1896C31.5628 50.9233 28.2542 56.1008 23.1184 58.6554C22.3433 59.0855 21.5372 59.4576 20.7068 59.7691C19.5184 60.2252 18.2882 60.5653 17.0347 60.7853C16.7038 60.8465 16.3858 60.8952 16.0554 60.9321C15.1621 61.0453 14.2624 61.1027 13.3621 61.1038C12.3919 61.1011 11.4229 61.0355 10.4608 60.9077C9.53455 62.9921 7.70202 64.5354 5.49085 65.0944L2.34473 66.0001L3.875 64.0414C4.60303 62.9266 4.9275 61.5962 4.79316 60.2712V59.2675C-1.03377 56.5986 -5 51.2982 -5 45.1896C-5 37.49 1.30415 31.0754 9.68947 29.5944C10.9023 29.3821 12.1309 29.2753 13.3621 29.2759C23.4982 29.2759 31.7242 36.4007 31.7242 45.1896Z" fill="#FA6C51"/>
<path fill-rule="evenodd" clip-rule="evenodd" d="M51.3105 17.0349H17.0348C16.3582 17.0349 15.8105 16.4867 15.8105 15.8106C15.8105 15.1346 16.3582 14.5864 17.0348 14.5864H51.3105C51.9866 14.5864 52.5348 15.1346 52.5348 15.8106C52.5348 16.4867 51.9866 17.0349 51.3105 17.0349Z" fill="#365972"/>
<path fill-rule="evenodd" clip-rule="evenodd" d="M51.3101 41.5175H37.8443C37.1683 41.5175 36.6201 40.9693 36.6201 40.2933C36.6201 39.6173 37.1683 39.0691 37.8443 39.0691H51.3101C51.9862 39.0691 52.5343 39.6173 52.5343 40.2933C52.5343 40.9693 51.9862 41.5175 51.3101 41.5175Z" fill="#365972"/>
<path fill-rule="evenodd" clip-rule="evenodd" d="M51.3101 23.1555H45.1891C44.513 23.1555 43.9648 22.6073 43.9648 21.9312C43.9648 21.2552 44.513 20.707 45.1891 20.707H51.3101C51.9861 20.707 52.5343 21.2552 52.5343 21.9312C52.5343 22.6073 51.9861 23.1555 51.3101 23.1555Z" fill="#365972"/>
<path fill-rule="evenodd" clip-rule="evenodd" d="M39.069 23.1555H17.0348C16.3582 23.1555 15.8105 22.6073 15.8105 21.9312C15.8105 21.2552 16.3582 20.707 17.0348 20.707H39.069C39.745 20.707 40.2932 21.2552 40.2932 21.9312C40.2932 22.6073 39.745 23.1555 39.069 23.1555Z" fill="#365972"/>
<path fill-rule="evenodd" clip-rule="evenodd" d="M51.3107 29.2758H29.276C28.5999 29.2758 28.0518 28.7276 28.0518 28.0516C28.0518 27.3756 28.5999 26.8274 29.276 26.8274H51.3107C51.9867 26.8274 52.5349 27.3756 52.5349 28.0516C52.5349 28.7276 51.9867 29.2758 51.3107 29.2758Z" fill="#365972"/>
<path fill-rule="evenodd" clip-rule="evenodd" d="M41.5178 35.3964H32.9488C32.2728 35.3964 31.7246 34.8487 31.7246 34.1727C31.7246 33.4961 32.2728 32.9485 32.9488 32.9485H41.5178C42.1938 32.9485 42.742 33.4961 42.742 34.1727C42.742 34.8487 42.1938 35.3964 41.5178 35.3964Z" fill="#365972"/>
<path fill-rule="evenodd" clip-rule="evenodd" d="M51.3109 35.3964H47.6383C46.9622 35.3964 46.4141 34.8487 46.4141 34.1727C46.4141 33.4961 46.9622 32.9485 47.6383 32.9485H51.3109C51.9869 32.9485 52.5351 33.4961 52.5351 34.1727C52.5351 34.8487 51.9869 35.3964 51.3109 35.3964Z" fill="#365972"/>
<path fill-rule="evenodd" clip-rule="evenodd" d="M13.3619 56.2068C12.6859 56.2068 12.1377 55.6586 12.1377 54.9826V53.7583C12.1377 53.0823 12.6859 52.5347 13.3619 52.5347C14.0379 52.5347 14.5861 53.0823 14.5861 53.7583V54.9826C14.5861 55.6586 14.0379 56.2068 13.3619 56.2068Z" fill="#F4F6F8"/>
<path fill-rule="evenodd" clip-rule="evenodd" d="M13.3625 50.0862C12.6865 50.0862 12.1383 49.538 12.1383 48.862V46.4136C12.1383 45.7375 12.6865 45.1894 13.3625 45.1894C15.7286 45.1894 17.6467 43.2712 17.6467 40.9052C17.6467 38.5391 15.7286 36.6204 13.3625 36.6204C10.9964 36.6204 9.07777 38.5391 9.07777 40.9052C9.07777 41.5812 8.53012 42.1294 7.8541 42.1294C7.17753 42.1294 6.62988 41.5812 6.62988 40.9052C6.62988 37.3463 9.40061 34.4022 12.953 34.1855C16.5054 33.9688 19.6125 36.5549 20.0453 40.0877C20.4781 43.6201 18.0866 46.8794 14.5867 47.5262V48.862C14.5867 49.538 14.0385 50.0862 13.3625 50.0862Z" fill="#F4F6F8"/>
<path fill-rule="evenodd" clip-rule="evenodd" d="M23.1557 66.0001H19.483C18.1326 65.9963 17.0389 64.9021 17.0352 63.5516V60.7852C18.2886 60.5653 19.5188 60.2251 20.7073 59.769V63.5516C20.7116 64.9021 21.8053 65.9963 23.1557 66.0001Z" fill="#848F9E"/>
<path fill-rule="evenodd" clip-rule="evenodd" d="M21.931 -5V-1.32736L13.3621 7.24158H9.68945L21.931 -5Z" fill="#457393"/>
<path fill-rule="evenodd" clip-rule="evenodd" d="M13.3621 7.2417V29.2759C12.1308 29.2754 10.9023 29.3821 9.68945 29.5944V7.2417H13.3621Z" fill="#CAD0D7"/>
<path fill-rule="evenodd" clip-rule="evenodd" d="M-1.32736 45.1895C-1.32736 51.2981 2.63887 56.5985 8.46526 59.2674V60.2711C8.59959 61.5961 8.27567 62.9265 7.54764 64.0413L7.31471 64.3354C6.74107 64.6642 6.12842 64.9194 5.49085 65.0943L2.34473 66L3.875 64.0413C4.60303 62.9265 4.9275 61.5961 4.79316 60.2711V59.2674C-1.03377 56.5985 -5 51.2981 -5 45.1895C-5 37.49 1.30415 31.0753 9.68947 29.5943C10.9023 29.382 12.1309 29.2753 13.3621 29.2758C13.9672 29.2731 14.5717 29.3018 15.174 29.3614C14.5619 29.4107 13.9498 29.4963 13.3621 29.5943C4.97679 31.0753 -1.32736 37.49 -1.32736 45.1895Z" fill="#E85841"/>
</g>
</g>
<defs>
<clipPath id="clip0_2_1757">
<rect width="60" height="60" fill="white"/>
</clipPath>
<clipPath id="clip1_2_1757">
<rect width="71" height="71" fill="white" transform="translate(-5 -5)"/>
</clipPath>
</defs>
</svg>
