<svg width="52" height="56" viewBox="0 0 52 56" fill="none" xmlns="http://www.w3.org/2000/svg">
<path d="M49.4578 38.0707V17.9316C49.4558 16.0758 48.7177 14.2966 47.4054 12.9843C46.0932 11.672 44.314 10.9339 42.4582 10.9319H9.45964C7.60384 10.9339 5.82462 11.672 4.51237 12.9843C3.20012 14.2965 2.462 16.0758 2.45996 17.9316V38.0707C2.462 39.9265 3.20012 41.7057 4.51237 43.018C5.82462 44.3302 7.60384 45.0683 9.45964 45.0704H42.4582C44.314 45.0683 46.0932 44.3302 47.4054 43.018C48.7177 41.7057 49.4558 39.9265 49.4578 38.0707ZM25.9988 30.621C24.6115 30.6223 23.2661 30.1455 22.189 29.271L8.90968 40.4406C8.70472 40.6035 8.44412 40.6797 8.18369 40.6528C7.92327 40.6259 7.68373 40.4981 7.51639 40.2967C7.34904 40.0954 7.2672 39.8365 7.2884 39.5755C7.30959 39.3146 7.43213 39.0723 7.62977 38.9006L20.6491 27.9412C20.6491 27.9412 11.2496 19.8015 7.89972 16.9216C7.70423 16.7475 7.5848 16.5037 7.56707 16.2425C7.54935 15.9813 7.63473 15.7236 7.80489 15.5246C7.97505 15.3257 8.21644 15.2014 8.47722 15.1784C8.738 15.1554 8.9974 15.2356 9.19972 15.4017C12.5595 18.2916 23.379 27.6611 23.379 27.6611C24.1023 28.2812 25.0226 28.6237 25.9752 28.6274C26.9279 28.631 27.8508 28.2956 28.5788 27.6811L42.9281 15.5217C43.1304 15.3552 43.3899 15.2748 43.6509 15.2977C43.9118 15.3206 44.1534 15.4449 44.3237 15.644C44.4939 15.8431 44.5793 16.101 44.5614 16.3624C44.5435 16.6237 44.4238 16.8676 44.228 17.0417L31.2987 28.0012L44.2181 38.9606C44.4196 39.133 44.5445 39.3784 44.5651 39.6428C44.5857 39.9072 44.5005 40.169 44.3281 40.3706C44.1557 40.5721 43.9103 40.697 43.6459 40.7176C43.3815 40.7382 43.1197 40.653 42.9182 40.4806L29.7388 29.3111C28.6795 30.1642 27.3589 30.6267 25.9988 30.621Z" fill="#29ABE2"/>
<path d="M2.46991 12.2719C3.31232 11.2269 4.37858 10.3843 5.59005 9.80625C6.80151 9.22821 8.12728 8.92949 9.46959 8.93212V7.00222H10.9895C11.1864 6.99963 11.3783 6.9394 11.5414 6.82897C11.7045 6.71854 11.8316 6.56275 11.9071 6.38085C11.9827 6.19894 12.0032 5.9989 11.9663 5.80544C11.9294 5.61198 11.8366 5.43357 11.6994 5.29227L6.6997 0.292501C6.51091 0.10514 6.25571 0 5.98974 0C5.72376 0 5.46856 0.10514 5.27978 0.292501L0.280005 5.29227C0.144463 5.4342 0.0531342 5.61248 0.0171497 5.80541C-0.0188347 5.99833 0.00207946 6.19756 0.0773433 6.3788C0.152607 6.56005 0.27897 6.71548 0.44103 6.82617C0.603091 6.93685 0.793849 6.998 0.990055 7.00216L2.46991 7.00222V12.2719Z" fill="#29ABE2"/>
<path d="M51.9175 49.6204C51.5789 48.6988 50.2024 49.071 49.4676 49.0004V43.7007C48.6281 44.7512 47.5632 45.5995 46.3516 46.1828C45.1399 46.7661 43.8126 47.0695 42.4679 47.0705V49.0004C41.7667 49.0655 40.3792 48.7105 40.068 49.6204C39.9917 49.8026 39.971 50.0032 40.0083 50.1971C40.0457 50.391 40.1395 50.5696 40.278 50.7104L45.2778 55.7101C45.469 55.8935 45.7229 55.9972 45.9878 56.0001C46.2531 55.999 46.5076 55.8951 46.6977 55.7101L51.6975 50.7103C51.8352 50.5691 51.9292 50.3912 51.9683 50.1978C52.0073 50.0045 51.9897 49.804 51.9175 49.6204Z" fill="#29ABE2"/>
</svg>
