<svg width="60" height="60" viewBox="0 0 60 60" fill="none" xmlns="http://www.w3.org/2000/svg">
<g clip-path="url(#clip0_7_1885)">
<path fill-rule="evenodd" clip-rule="evenodd" d="M10.6845 38.8594H45.8863C53.38 38.8594 59.513 32.7264 59.513 25.2293C59.513 17.7322 53.38 11.6026 45.8829 11.6026C43.0807 4.79262 36.3819 0 28.5615 0C18.296 0 9.96375 8.2616 9.83906 18.4968C4.62211 18.9312 0.486328 23.3365 0.486328 28.6613C0.486328 34.2689 5.0768 38.8594 10.6845 38.8594Z" fill="#0CB4FB"/>
<path fill-rule="evenodd" clip-rule="evenodd" d="M42.7436 16.3143C42.7436 15.6306 42.1037 15.0715 41.319 15.0715H18.6795C17.8982 15.0715 17.2549 15.6306 17.2549 16.3143V35.4543C17.2549 36.1414 17.8982 36.7005 18.6795 36.7005H41.3189C42.1036 36.7005 42.7435 36.1414 42.7435 35.4543C42.7436 29.0754 42.7436 22.6966 42.7436 16.3143Z" fill="#E9E9FF"/>
<path fill-rule="evenodd" clip-rule="evenodd" d="M17.2549 35.4544C17.2549 36.1415 17.8982 36.7006 18.6795 36.7006H41.3189C42.1036 36.7006 42.7435 36.1415 42.7435 35.4544V22.7742H28.8845C28.6756 22.7742 28.5275 22.6899 28.4197 22.5114L26.3585 19.1165C25.8263 18.2375 24.8698 17.8299 23.8661 17.8299H18.6795V15.0715C17.8948 15.0715 17.2549 15.6306 17.2549 16.3143V35.4544Z" fill="#CFCFFF"/>
<path fill-rule="evenodd" clip-rule="evenodd" d="M28.8847 24.1986H44.5154C45.519 24.1986 46.3409 25.0204 46.3409 26.0241V45.9084C46.3409 46.9154 45.5191 47.7373 44.5154 47.7373H15.487C14.48 47.7373 13.6582 46.9156 13.6582 45.9084V21.474C13.6582 20.2514 14.6585 19.2512 15.8811 19.2512H23.8665C24.3785 19.2512 24.8769 19.4196 25.143 19.854L27.2009 23.249C27.5679 23.8552 28.1775 24.1986 28.8847 24.1986Z" fill="#FCA92A"/>
<path d="M40.4292 32.0977C38.298 29.9666 34.8273 29.9663 32.6919 32.0977L29.9997 34.79L27.307 32.0973C25.1742 29.9681 21.7036 29.9682 19.5703 32.0977C18.5401 33.1279 17.9727 34.5023 17.9727 35.9676C17.9727 37.4333 18.5403 38.8068 19.5703 39.8349C20.6369 40.9016 22.0377 41.4348 23.4389 41.4348C24.8397 41.4348 26.2409 40.9013 27.3075 39.8349L29.9997 37.1429L32.6919 39.835C33.7221 40.8651 35.0964 41.4325 36.5618 41.4325C38.0273 41.4325 39.401 40.865 40.4286 39.8355C41.4591 38.807 42.0267 37.4333 42.0267 35.9677C42.0267 34.5023 41.4593 33.128 40.4292 32.0977ZM26.1311 38.6585C24.6466 40.1428 22.2312 40.1431 20.7464 38.6579C20.0307 37.9438 19.6366 36.9882 19.6366 35.9676C19.6366 34.9467 20.0309 33.9901 20.7464 33.2746C21.4889 32.5336 22.4641 32.1631 23.4392 32.1631C24.4142 32.1631 25.3892 32.5334 26.1312 33.2742L28.8235 35.9663L26.1311 38.6585ZM39.2521 38.6591C38.5379 39.3746 37.5823 39.7687 36.5618 39.7687C35.5408 39.7687 34.5842 39.3745 33.8683 38.6585L31.1761 35.9663L33.8677 33.2746C35.3538 31.7913 37.7695 31.7908 39.2525 33.2742C39.9685 33.9901 40.3627 34.9467 40.3627 35.9676C40.3629 36.9883 39.9688 37.9438 39.2521 38.6591Z" fill="#0193FA"/>
<path d="M17.5319 53.2269H12.1768V51.5631H16.7V47.7372H18.3638V52.395C18.3638 52.8545 17.9914 53.2269 17.5319 53.2269ZM21.213 56.5107H16.6898V58.1745H22.0449C22.5044 58.1745 22.8768 57.8021 22.8768 57.3426V47.7371H21.213V56.5107ZM43.3 51.5631V47.7372H41.6362V52.395C41.6362 52.8545 42.0086 53.2269 42.4681 53.2269H47.8231V51.5631H43.3ZM38.787 47.7372H37.1232V57.3427C37.1232 57.8022 37.4956 58.1746 37.9551 58.1746H43.3135V56.5108H38.787V47.7372ZM28.9895 55.4734H30.6534V47.7372H28.9895V55.4734Z" fill="#CFCFFF"/>
<path fill-rule="evenodd" clip-rule="evenodd" d="M42.3163 6.02191C38.8977 2.32055 34.0008 0 28.5615 0C18.296 0 9.96375 8.2616 9.83906 18.4968C4.62211 18.9312 0.486328 23.3365 0.486328 28.6613C0.486328 31.9989 2.11301 34.9761 4.61543 36.8386C3.15035 35.0737 2.27133 32.8105 2.27133 30.3519C2.27133 25.0271 6.40383 20.6252 11.6208 20.1908C11.7454 9.95226 20.0776 1.69406 30.3431 1.69406C34.9 1.69406 39.0729 3.31746 42.3163 6.02191Z" fill="#0193FA"/>
<path fill-rule="evenodd" clip-rule="evenodd" d="M54.0396 12.5254V22.0938H49.2269V12.5254H44.8721L51.635 4.35474L58.3977 12.5254H54.0396Z" fill="#43CB8E"/>
<path fill-rule="evenodd" clip-rule="evenodd" d="M10.772 13.9265V4.35474H5.95918V13.9265H1.60449L8.36727 22.0938L15.1268 13.9265H10.772Z" fill="#ED524E"/>
<path fill-rule="evenodd" clip-rule="evenodd" d="M54.0404 12.5254V22.0938H51.6357V4.35474L58.3985 12.5254H54.0404Z" fill="#00BA66"/>
<path d="M10.3507 54.874C8.88563 54.874 7.69336 53.6851 7.69336 52.2167C7.69336 50.7482 8.88563 49.5593 10.3507 49.5593C11.8191 49.5593 13.008 50.7482 13.008 52.2167C13.008 53.6851 11.8191 54.874 10.3507 54.874ZM14.8637 54.6887C13.3954 54.6887 12.2064 55.8776 12.2064 57.3427C12.2064 58.8112 13.3952 60 14.8637 60C16.3322 60 17.5211 58.8112 17.5211 57.3427C17.5211 55.8776 16.3322 54.6887 14.8637 54.6887Z" fill="#ED524E"/>
<path d="M52.3057 52.2167C52.3057 53.685 51.1169 54.874 49.6484 54.874C48.1833 54.874 46.9945 53.6851 46.9945 52.2167C46.9945 50.7482 48.1833 49.5593 49.6484 49.5593C51.1169 49.5594 52.3057 50.7483 52.3057 52.2167ZM45.1388 54.6887C43.6703 54.6887 42.4814 55.8776 42.4814 57.3427C42.4814 58.8112 43.6703 60 45.1388 60C46.6039 60 47.7927 58.8112 47.7927 57.3427C47.7926 55.8776 46.6037 54.6887 45.1388 54.6887Z" fill="#43CB8E"/>
<path d="M29.8214 54.6416C31.2898 54.6416 32.4788 55.8305 32.4788 57.2989C32.4788 58.764 31.2899 59.9529 29.8214 59.9529C28.3563 59.9529 27.1641 58.764 27.1641 57.2989C27.1641 55.8305 28.3563 54.6416 29.8214 54.6416Z" fill="#0CB4FB"/>
<path fill-rule="evenodd" clip-rule="evenodd" d="M15.3523 38.8594V21.474C15.3523 20.3592 16.1808 19.4297 17.2552 19.2748C17.3596 19.2579 17.4674 19.2512 17.5751 19.2512C17.4674 19.2512 17.363 19.2512 17.2552 19.2512C16.7972 19.2512 16.3391 19.2512 15.8811 19.2512C14.6585 19.2512 13.6582 20.2515 13.6582 21.474V38.8594V45.9084C13.6582 46.9154 14.4799 47.7373 15.487 47.7373H17.1811C16.1741 47.7373 15.3523 46.9156 15.3523 45.9084V38.8594Z" fill="#CC8922"/>
<path fill-rule="evenodd" clip-rule="evenodd" d="M5.95918 13.9265V4.35474H8.36727V22.0938L1.60449 13.9265H5.95918Z" fill="#C0433F"/>
</g>
<defs>
<clipPath id="clip0_7_1885">
<rect width="60" height="60" fill="white"/>
</clipPath>
</defs>
</svg>
