<svg width="60" height="60" viewBox="0 0 60 60" fill="none" xmlns="http://www.w3.org/2000/svg">
<g clip-path="url(#clip0_2_1732)">
<path d="M45.9375 1.875H14.0625C11.4737 1.875 9.375 3.97367 9.375 6.5625V53.4375C9.375 56.0263 11.4737 58.125 14.0625 58.125H45.9375C48.5263 58.125 50.625 56.0263 50.625 53.4375V6.5625C50.625 3.97367 48.5263 1.875 45.9375 1.875Z" fill="#68B1FC"/>
<path d="M45.9375 9.375H14.0625C13.5447 9.375 13.125 9.79473 13.125 10.3125V45.9375C13.125 46.4553 13.5447 46.875 14.0625 46.875H45.9375C46.4553 46.875 46.875 46.4553 46.875 45.9375V10.3125C46.875 9.79473 46.4553 9.375 45.9375 9.375Z" fill="#E7EAEF"/>
<path d="M30 54.375C31.5533 54.375 32.8125 53.1158 32.8125 51.5625C32.8125 50.0092 31.5533 48.75 30 48.75C28.4467 48.75 27.1875 50.0092 27.1875 51.5625C27.1875 53.1158 28.4467 54.375 30 54.375Z" fill="#E7EAEF"/>
<path d="M40.9752 17.1496C40.8493 17.023 40.6898 16.9352 40.5155 16.8966C40.3412 16.858 40.1595 16.8702 39.9919 16.9317L19.3669 24.4317C19.1799 24.4997 19.0193 24.6255 18.9086 24.7909C18.7978 24.9563 18.7425 25.1526 18.7508 25.3514C18.7591 25.5503 18.8304 25.7414 18.9545 25.897C19.0786 26.0526 19.249 26.1647 19.4411 26.217L29.2363 28.8885L31.9078 38.6837C31.96 38.8759 32.0721 39.0464 32.2279 39.1706C32.3836 39.2947 32.5749 39.366 32.7739 39.374C32.7868 39.3749 32.7996 39.3749 32.8124 39.3749C33.0048 39.375 33.1925 39.3158 33.3501 39.2054C33.5077 39.095 33.6275 38.9387 33.6931 38.7578L41.1931 18.1328C41.2541 17.9652 41.266 17.7836 41.2274 17.6095C41.1888 17.4353 41.1013 17.2758 40.9752 17.1496Z" fill="#FC6067"/>
<path d="M32.8125 7.5H27.1875C26.9389 7.5 26.7004 7.40123 26.5246 7.22541C26.3488 7.0496 26.25 6.81114 26.25 6.5625C26.25 6.31386 26.3488 6.0754 26.5246 5.89959C26.7004 5.72377 26.9389 5.625 27.1875 5.625H32.8125C33.0611 5.625 33.2996 5.72377 33.4754 5.89959C33.6512 6.0754 33.75 6.31386 33.75 6.5625C33.75 6.81114 33.6512 7.0496 33.4754 7.22541C33.2996 7.40123 33.0611 7.5 32.8125 7.5Z" fill="#E7EAEF"/>
</g>
<defs>
<clipPath id="clip0_2_1732">
<rect width="60" height="60" fill="white"/>
</clipPath>
</defs>
</svg>
