<svg width="60" height="60" viewBox="0 0 60 60" fill="none" xmlns="http://www.w3.org/2000/svg">
<g clip-path="url(#clip0_2_1752)">
<path d="M49.6451 16.875C49.2413 16.8752 48.8464 16.7555 48.5107 16.531C48.1749 16.3066 47.9133 15.9876 47.759 15.6143L47.7486 15.5893C47.5936 15.2162 47.5529 14.8054 47.6315 14.4091C47.7101 14.0127 47.9046 13.6486 48.1904 13.3629L50.872 10.6813L45.5687 5.37801L42.8871 8.05962C42.6014 8.34537 42.2373 8.53988 41.8409 8.61851C41.4446 8.69715 41.0338 8.65638 40.6606 8.50136C40.6523 8.4979 40.644 8.49445 40.6357 8.49101C40.2624 8.33671 39.9434 8.0751 39.719 7.73933C39.4945 7.40356 39.3748 7.00873 39.375 6.60486V2.8125H31.875V6.60486C31.8752 7.00873 31.7555 7.40356 31.531 7.73933C31.3066 8.0751 30.9876 8.33671 30.6143 8.49101C30.606 8.49444 30.5977 8.4979 30.5893 8.50136C30.2162 8.65638 29.8054 8.69715 29.4091 8.61851C29.0127 8.53988 28.6486 8.34537 28.3629 8.05962L25.6813 5.37801L20.378 10.6813L23.0596 13.3629C23.3454 13.6486 23.5399 14.0127 23.6185 14.4091C23.6971 14.8054 23.6564 15.2162 23.5014 15.5893L23.491 15.6143C23.3367 15.9876 23.0751 16.3066 22.7393 16.531C22.4036 16.7555 22.0087 16.8752 21.6049 16.875H17.8125V24.375H21.6049C22.0087 24.3748 22.4036 24.4945 22.7393 24.719C23.0751 24.9434 23.3367 25.2624 23.491 25.6357L23.5014 25.6607C23.6564 26.0338 23.6971 26.4446 23.6185 26.8409C23.5399 27.2373 23.3454 27.6014 23.0596 27.8871L21.8842 29.0625H49.3658L48.1904 27.8871C47.9046 27.6014 47.7101 27.2373 47.6315 26.8409C47.5529 26.4446 47.5936 26.0338 47.7486 25.6607L47.759 25.6357C47.9133 25.2624 48.1749 24.9434 48.5107 24.719C48.8464 24.4945 49.2413 24.3748 49.6451 24.375H53.4375V16.875H49.6451ZM35.625 25.3125C34.6979 25.3125 33.7916 25.0376 33.0208 24.5225C32.2499 24.0074 31.6491 23.2754 31.2943 22.4188C30.9395 21.5623 30.8467 20.6198 31.0276 19.7105C31.2084 18.8012 31.6549 17.966 32.3104 17.3104C32.966 16.6549 33.8012 16.2084 34.7105 16.0276C35.6198 15.8467 36.5623 15.9395 37.4188 16.2943C38.2754 16.6491 39.0074 17.2499 39.5225 18.0208C40.0376 18.7916 40.3125 19.6979 40.3125 20.625C40.3125 21.8682 39.8186 23.0605 38.9396 23.9396C38.0605 24.8186 36.8682 25.3125 35.625 25.3125Z" fill="#EF5E3B"/>
<path d="M35.6254 30.9376C33.4288 30.9448 31.2877 30.2476 29.5166 28.9483C27.7455 27.6489 26.4377 25.8159 25.7852 23.7185L27.574 23.1567C27.9566 24.3735 28.61 25.4877 29.4853 26.4157C30.3605 27.3436 31.4346 28.061 32.627 28.5141C33.8194 28.9671 35.099 29.1439 36.3696 29.0312C37.6401 28.9186 38.8686 28.5193 39.9627 27.8635C41.0568 27.2077 41.9879 26.3124 42.6862 25.245C43.3844 24.1775 43.8316 22.9657 43.9941 21.7005C44.1566 20.4354 44.0302 19.1498 43.6243 17.9406C43.2185 16.7313 42.5438 15.6298 41.651 14.7188L42.9899 13.4062C44.4115 14.8566 45.3732 16.6943 45.7545 18.6891C46.1358 20.6838 45.9196 22.7467 45.133 24.619C44.3465 26.4914 43.0246 28.0898 41.3332 29.2139C39.6418 30.3379 37.6562 30.9376 35.6254 30.9376Z" fill="#E35430"/>
<path d="M15.9375 29.0625H36.5625V53.4375H15.9375V29.0625Z" fill="#F6BB00"/>
<path d="M2.8125 44.0625L12.1875 45.9375V55.3125H2.8125V44.0625Z" fill="#548AFF"/>
<path d="M12.1875 46.875H14.7719C16.0331 46.875 17.2819 47.1234 18.4471 47.6062C19.6123 48.0889 20.6709 48.7964 21.5627 49.6883L25.3122 49.6875C25.5584 49.6875 25.8023 49.7359 26.0298 49.8301C26.2573 49.9243 26.4641 50.0625 26.6382 50.2366C26.8124 50.4107 26.9505 50.6174 27.0447 50.8449C27.139 51.0724 27.1875 51.3162 27.1875 51.5625C27.1875 52.0597 26.99 52.5366 26.6384 52.8882C26.2869 53.2398 25.81 53.4374 25.3128 53.4375H25.3125L30.9375 53.4376C31.1837 53.4376 31.4275 53.4861 31.655 53.5803C31.8825 53.6745 32.0892 53.8126 32.2633 53.9867C32.4374 54.1608 32.5755 54.3675 32.6698 54.595C32.764 54.8225 32.8125 55.0663 32.8125 55.3125C32.8125 55.5588 32.764 55.8026 32.6698 56.0301C32.5756 56.2575 32.4374 56.4642 32.2633 56.6383C32.0892 56.8124 31.8825 56.9506 31.6551 57.0448C31.4276 57.139 31.1838 57.1875 30.9375 57.1875H22.5C19.4573 57.1875 16.4967 56.2006 14.0625 54.375H12.1875V46.875Z" fill="#F5C99D"/>
<path d="M36.5625 29.0625H53.4375V53.4375H36.5625V29.0625Z" fill="#EDA600"/>
<path d="M15.9375 29.0625L12.1875 34.6875H32.8125L36.5625 29.0625H15.9375Z" fill="#FCD453"/>
<path d="M53.4375 29.0625L57.1875 34.6875H40.3125L36.5625 29.0625H53.4375Z" fill="#FCD453"/>
<path d="M28.125 39.375H30V41.25H28.125V39.375Z" fill="#DE9400"/>
<path d="M22.5 39.375H26.25V41.25H22.5V39.375Z" fill="#DE9400"/>
<path d="M25.3125 43.125H31.875V45H25.3125V43.125Z" fill="#DE9400"/>
<path d="M20.625 43.125H23.4375V45H20.625V43.125Z" fill="#DE9400"/>
<path d="M30.9374 52.5004L27.9636 52.5004C28.1138 52.0762 28.1599 51.6221 28.0982 51.1764C28.0365 50.7307 27.8687 50.3063 27.609 49.9389C27.3492 49.5714 27.0051 49.2717 26.6055 49.0648C26.2059 48.858 25.7625 48.75 25.3125 48.75H25.312L21.9407 48.7507C19.9955 46.9359 17.4322 45.93 14.7719 45.9375H12.1875V47.8125H14.7719C15.9104 47.8094 17.0382 48.0322 18.0901 48.4679C19.1419 48.9037 20.0969 49.5438 20.8997 50.3511C21.0755 50.527 21.314 50.6258 21.5627 50.6258H21.5628L25.3124 50.625C25.4355 50.6251 25.5574 50.6493 25.6711 50.6964C25.7849 50.7436 25.8882 50.8126 25.9753 50.8997C26.0623 50.9868 26.1314 51.0901 26.1785 51.2039C26.2256 51.3176 26.2498 51.4395 26.2498 51.5626C26.2498 51.6857 26.2255 51.8076 26.1784 51.9214C26.1313 52.0351 26.0622 52.1385 25.9751 52.2255C25.8881 52.3126 25.7847 52.3816 25.671 52.4287C25.5572 52.4758 25.4353 52.5001 25.3122 52.5C25.3108 52.5 25.3095 52.5003 25.3081 52.5004L22.5 52.5003V54.3753L30.9374 54.3754C31.0606 54.3752 31.1827 54.3994 31.2965 54.4464C31.4104 54.4935 31.5139 54.5625 31.601 54.6496C31.6882 54.7366 31.7574 54.84 31.8045 54.9538C31.8517 55.0676 31.876 55.1896 31.876 55.3128C31.876 55.436 31.8518 55.558 31.8046 55.6718C31.7574 55.7856 31.6883 55.889 31.6011 55.9761C31.514 56.0631 31.4105 56.1322 31.2966 56.1792C31.1828 56.2263 31.0608 56.2505 30.9376 56.2503H22.5C19.6611 56.2444 16.8996 55.324 14.625 53.6253C14.4627 53.5036 14.2653 53.4378 14.0625 53.4378H12.1875V55.3128H13.7557C16.3077 57.1357 19.3639 58.1187 22.5 58.1253H30.9376C31.3071 58.1256 31.673 58.053 32.0144 57.9117C32.3558 57.7705 32.6661 57.5634 32.9274 57.3022C33.1888 57.041 33.3961 56.7309 33.5375 56.3895C33.679 56.0482 33.7518 55.6823 33.7518 55.3128C33.7518 54.9433 33.679 54.5774 33.5375 54.2361C33.396 53.8948 33.1887 53.5846 32.9273 53.3235C32.666 53.0623 32.3557 52.8552 32.0143 52.7139C31.6729 52.5727 31.3069 52.5001 30.9374 52.5004Z" fill="#DEAE7E"/>
</g>
<defs>
<clipPath id="clip0_2_1752">
<rect width="60" height="60" fill="white"/>
</clipPath>
</defs>
</svg>
