<svg width="59" height="59" viewBox="0 0 59 59" fill="none" xmlns="http://www.w3.org/2000/svg">
<g clip-path="url(#clip0_7_1806)">
<path d="M11.479 1.47811C5.46704 6.38583 4.48554 12.1523 4.48554 12.1523C2.52243 29.5746 12.3379 48.8372 27.5516 57.5485C27.5516 57.5485 32.8274 60.2477 40.3116 58.2846C41.1705 58.0393 41.7839 57.9165 42.52 57.4257L29.392 42.3346C27.3063 43.3161 24.8524 42.8254 23.3801 41.1076C20.9263 38.2857 16.1413 28.7158 15.2824 25.1576C14.7916 22.9492 15.8958 20.618 17.8589 19.6365L13.5647 0.128418C12.706 0.496494 12.0925 0.864571 11.479 1.47811Z" fill="#FF7058"/>
<path d="M45.5879 49.3281L36.9995 39.7581C36.2633 38.8992 35.0363 38.6539 34.0548 39.1447C32.8279 39.7581 31.233 40.7397 29.3926 42.3347L42.6433 57.3031C43.6248 56.5669 44.6064 55.2173 46.0787 52.15C46.4467 51.2911 46.3241 50.1869 45.5879 49.3281Z" fill="#40596B"/>
<path d="M24.485 14.9743L21.7857 2.45966C21.5404 1.47816 20.8042 0.619276 19.7 0.496546C16.3873 -0.116876 14.6697 -0.116876 13.5654 0.2512L17.8596 19.6365C20.3134 19.1457 22.0312 18.4096 23.258 17.7961C24.2396 17.3054 24.7303 16.0785 24.485 14.9743Z" fill="#40596B"/>
<path d="M53.6849 34.8505C53.3168 35.0958 52.826 35.2186 52.2126 35.2186C51.2311 35.0958 50.4949 34.1143 50.6175 33.0101C51.599 27.2436 50.2495 21.477 46.9368 16.8148C43.6241 12.0298 38.5938 8.96242 32.8271 7.98092C31.8457 7.85819 31.1095 6.87669 31.2321 5.77246C31.3548 4.79096 32.3363 4.05481 33.4406 4.17743C40.1887 5.28165 46.0779 8.96242 50.004 14.6063C53.9301 20.1274 55.5252 26.8755 54.4209 33.6235C54.2983 34.1143 54.053 34.6051 53.6849 34.8505Z" fill="#CDD6E0"/>
<path d="M44.8512 33.3781C44.4832 33.6234 43.9924 33.7462 43.3789 33.7462C42.3974 33.6234 41.6613 32.6419 41.7839 31.5377C43.0109 24.5443 38.2259 17.9189 31.2324 16.8147C30.2509 16.6919 29.5148 15.7104 29.6374 14.6062C29.7601 13.6247 30.7416 12.8885 31.8458 13.0112C40.925 14.4835 47.0597 23.1946 45.4647 32.1511C45.5874 32.6419 45.2193 33.1327 44.8512 33.3781Z" fill="#CDD6E0"/>
<path d="M36.1401 31.9059C35.772 32.1512 35.2812 32.2739 34.6678 32.2739C33.6863 32.1512 32.9502 31.1697 33.0728 30.0655C33.4408 27.9798 31.9685 25.8939 29.8828 25.5258C28.9013 25.4031 28.1652 24.4216 28.2878 23.3174C28.4105 22.3359 29.392 21.5997 30.4962 21.7223C34.6678 22.4585 37.4897 26.3846 36.8763 30.6789C36.7536 31.1697 36.5082 31.5378 36.1401 31.9059Z" fill="#CDD6E0"/>
</g>
<defs>
<clipPath id="clip0_7_1806">
<rect width="59" height="59" fill="white"/>
</clipPath>
</defs>
</svg>
