<svg width="51" height="51" viewBox="0 0 51 51" fill="none" xmlns="http://www.w3.org/2000/svg">
<g clip-path="url(#clip0_1210_1148)">
<path d="M41.8776 50.1305C30.9937 51.2917 20.0171 51.2917 9.13325 50.1305C7.01969 49.9073 5.0465 48.9664 3.54263 47.4647C2.03876 45.9629 1.09509 43.991 0.868927 41.8778C-0.292247 30.9939 -0.292247 20.0174 0.868927 9.13349C1.09212 7.01994 2.03303 5.04675 3.53479 3.54288C5.03655 2.03901 7.00842 1.09533 9.12165 0.869171C20.0055 -0.292002 30.9821 -0.292002 41.866 0.869171C43.9795 1.09237 45.9527 2.03327 47.4566 3.53503C48.9604 5.0368 49.9041 7.00866 50.1303 9.1219C51.2915 20.0058 51.2915 30.9823 50.1303 41.8662C49.9071 43.9798 48.9662 45.953 47.4644 47.4568C45.9627 48.9607 43.9908 49.9044 41.8776 50.1305Z" fill="#E60000"/>
<path d="M40.6935 17.8326C40.056 15.8708 37.9465 14.6828 36.005 14.4104C29.0218 13.6685 21.9796 13.6685 14.9965 14.4104C13.055 14.6828 10.9396 15.8592 10.3079 17.8326C9.31402 22.8968 9.31402 28.106 10.3079 33.1703C10.9454 35.1291 13.055 36.3201 14.9965 36.5925C21.9796 37.3343 29.0218 37.3343 36.005 36.5925C37.9465 36.3201 40.0618 35.1436 40.6935 33.1703C41.6874 28.106 41.6874 22.8968 40.6935 17.8326ZM21.6873 31.6084V19.3916L31.6323 25.5C28.2796 27.5603 25.0255 29.5568 21.6873 31.6084Z" fill="white"/>
</g>
<defs>
<clipPath id="clip0_1210_1148">
<rect width="51" height="51" fill="white"/>
</clipPath>
</defs>
</svg>
