<svg width="51" height="51" viewBox="0 0 51 51" fill="none" xmlns="http://www.w3.org/2000/svg">
<g clip-path="url(#clip0_1210_1141)">
<path d="M50.4263 25.5056C50.4263 39.5875 39.265 51 25.4993 51C11.7336 51 0.572266 39.585 0.572266 25.5056C0.572266 11.4262 11.7336 0 25.4993 0C39.265 0 50.4263 11.415 50.4263 25.5056Z" fill="#007AB9"/>
<path d="M50.427 25.5056C50.427 39.5875 39.2657 51 25.5 51V0C39.2657 0 50.427 11.415 50.427 25.5056Z" fill="#04709B"/>
<path d="M12.9526 19.7343V38.0665H18.91V19.7343H12.9526ZM15.9719 10.8962C13.9324 10.8962 12.5977 12.2709 12.5977 14.0655C12.5977 15.8239 13.8899 17.2336 15.8894 17.2336H15.9294C18.0052 17.2336 19.2974 15.8239 19.2974 14.0655C19.2599 12.2647 18.0077 10.8962 15.9719 10.8962ZM33.5318 19.3019C30.3687 19.3019 28.9553 21.084 28.158 22.33V22.3937H28.1217C28.1305 22.37 28.1492 22.3525 28.158 22.33V19.7343H22.2005C22.2805 21.4527 22.2005 38.0665 22.2005 38.0665H28.1592V27.825C28.1592 27.2751 28.203 26.734 28.3592 26.3428C28.7903 25.2431 29.7676 24.1108 31.416 24.1108C33.5705 24.1108 34.4328 25.793 34.4328 28.2574V38.0665H40.3915V27.5526C40.3928 21.9251 37.4472 19.3019 33.5318 19.3019Z" fill="#F1F2F2"/>
<path d="M40.3942 27.5527V38.0666H34.4355V28.255C34.4355 25.7906 33.5732 24.1084 31.4187 24.1084C29.7703 24.1084 28.7943 25.2407 28.3619 26.3404C28.2057 26.7316 28.1619 27.2727 28.1619 27.8226V38.0641H25.5V19.7344H28.1619V22.3301C28.9567 21.0804 30.3702 19.302 33.5357 19.302C37.4486 19.302 40.3942 21.9252 40.3942 27.5527Z" fill="#E2E2E2"/>
</g>
<defs>
<clipPath id="clip0_1210_1141">
<rect width="51" height="51" fill="white"/>
</clipPath>
</defs>
</svg>
