<svg width="47" height="47" viewBox="0 0 47 47" fill="none" xmlns="http://www.w3.org/2000/svg">
<path d="M18.6761 26.1283H13.6978C12.8939 26.1283 12.6465 25.8191 12.6465 25.077C12.6465 23.0672 12.6465 20.9954 12.6465 18.9856C12.6465 18.1816 12.9557 17.8724 13.6978 17.8724H18.6761V13.4507C18.6142 11.5027 19.0781 9.52374 20.0366 7.76124C21.057 5.99874 22.6649 4.70005 24.5202 4.05071C25.7879 3.58689 27.0248 3.40137 28.3544 3.40137H33.2708C33.982 3.40137 34.2912 3.71058 34.2912 4.42176V10.1422C34.2912 10.8533 33.982 11.1626 33.2708 11.1626C31.9103 11.1626 30.5498 11.1626 29.1892 11.2244C27.8287 11.2862 27.1175 11.8737 27.1175 13.2961C27.0557 14.8112 27.1175 16.2645 27.1175 17.8106H32.8998C33.7037 17.8106 34.0129 18.1198 34.0129 18.9237V25.0152C34.0129 25.8191 33.7656 26.1283 32.8998 26.1283H27.1794V42.4856C27.1794 43.3514 26.8702 43.6297 26.0353 43.6297H19.7583C19.0162 43.6297 18.707 43.3204 18.707 42.5783V26.1283H18.6761Z" fill="url(#paint0_linear_1210_1138)"/>
<defs>
<linearGradient id="paint0_linear_1210_1138" x1="15.229" y1="12.2201" x2="36.6592" y2="33.6499" gradientUnits="userSpaceOnUse">
<stop stop-color="#42A5F5"/>
<stop offset="1" stop-color="#1565C0"/>
</linearGradient>
</defs>
</svg>
