<svg width="23" height="23" viewBox="0 0 23 23" fill="none" xmlns="http://www.w3.org/2000/svg">
<path d="M17.25 7.6665C18.8378 7.6665 20.125 6.37932 20.125 4.7915C20.125 3.20369 18.8378 1.9165 17.25 1.9165C15.6622 1.9165 14.375 3.20369 14.375 4.7915C14.375 6.37932 15.6622 7.6665 17.25 7.6665Z" stroke="white" stroke-width="2.5" stroke-linecap="round" stroke-linejoin="round"/>
<path d="M5.75 14.375C7.33782 14.375 8.625 13.0878 8.625 11.5C8.625 9.91218 7.33782 8.625 5.75 8.625C4.16218 8.625 2.875 9.91218 2.875 11.5C2.875 13.0878 4.16218 14.375 5.75 14.375Z" stroke="white" stroke-width="2.5" stroke-linecap="round" stroke-linejoin="round"/>
<path d="M17.25 21.0835C18.8378 21.0835 20.125 19.7963 20.125 18.2085C20.125 16.6207 18.8378 15.3335 17.25 15.3335C15.6622 15.3335 14.375 16.6207 14.375 18.2085C14.375 19.7963 15.6622 21.0835 17.25 21.0835Z" stroke="white" stroke-width="2.5" stroke-linecap="round" stroke-linejoin="round"/>
<path d="M8.23242 12.9473L14.7778 16.7614" stroke="white" stroke-width="2.5" stroke-linecap="round" stroke-linejoin="round"/>
<path d="M14.7683 6.23877L8.23242 10.0529" stroke="white" stroke-width="2.5" stroke-linecap="round" stroke-linejoin="round"/>
</svg>
