<svg width="23" height="23" viewBox="0 0 23 23" fill="none" xmlns="http://www.w3.org/2000/svg">
<g clip-path="url(#clip0_647_519)">
<path d="M19.4062 3.46059C21.6246 5.66121 22.7338 8.31437 22.7338 11.4201C22.7338 14.5258 21.6246 17.179 19.4062 19.3796C17.1879 21.5802 14.517 22.6805 11.3935 22.6805C9.47685 22.6805 7.68441 22.2191 6.0162 21.2962L0 22.8402L1.59722 17.037C0.603395 15.2978 0.106481 13.4166 0.106481 11.3935C0.106481 8.3055 1.20679 5.66121 3.40741 3.46059C5.60802 1.25998 8.27006 0.159668 11.3935 0.159668C14.517 0.159668 17.1879 1.25998 19.4062 3.46059ZM11.3935 20.7638C13.9846 20.7638 16.2029 19.8499 18.0486 18.0219C19.8943 16.194 20.8171 13.9845 20.8171 11.3935C20.8171 8.80241 19.8943 6.59292 18.0486 4.76499C16.2029 2.93706 13.9846 2.02309 11.3935 2.02309C8.80247 2.02309 6.59298 2.93706 4.76505 4.76499C2.93711 6.59292 2.02315 8.80241 2.02315 11.3935C2.02315 13.2036 2.50231 14.8719 3.46065 16.3981L3.67361 16.7175L2.71528 20.1782L6.28241 19.2731L6.60185 19.4328C8.09259 20.3202 9.68981 20.7638 11.3935 20.7638ZM16.5579 13.7361C16.8773 13.9135 17.0548 14.0378 17.0903 14.1087C17.2323 14.3217 17.179 14.7654 16.9306 15.4398C16.8241 15.7237 16.5579 15.9988 16.1319 16.265C15.706 16.5312 15.3333 16.6998 15.0139 16.7708C14.375 16.8418 13.7894 16.8063 13.2569 16.6643C12.6535 16.4513 12.1211 16.2561 11.6597 16.0786C11.3758 15.9367 11.1007 15.7858 10.8345 15.6261C10.5683 15.4664 10.311 15.3067 10.0625 15.1469C9.81404 14.9872 9.58333 14.8186 9.37037 14.6411C9.15741 14.4637 8.95332 14.2862 8.7581 14.1087C8.56289 13.9313 8.37654 13.7449 8.19907 13.5497C8.0216 13.3545 7.87076 13.1859 7.74653 13.0439C7.6223 12.902 7.49807 12.7511 7.37384 12.5914C7.24961 12.4317 7.15201 12.3074 7.08102 12.2187C7.01003 12.13 6.94792 12.0412 6.89468 11.9525L6.81481 11.8194C6.03395 10.7901 5.64352 9.81399 5.64352 8.89115C5.64352 8.0393 5.98071 7.25843 6.65509 6.54856C6.86806 6.3001 7.11651 6.17587 7.40046 6.17587C7.61343 6.17587 7.79089 6.19362 7.93287 6.22911C8.21682 6.22911 8.42978 6.38883 8.57176 6.70828C8.64275 6.81476 8.74923 7.04547 8.8912 7.40041L9.26389 8.33212L9.42361 8.78467C9.53009 8.96214 9.54784 9.12186 9.47685 9.26383C9.37037 9.51229 9.28164 9.67201 9.21065 9.743L9.05093 9.90272L8.8912 10.0891L8.78472 10.2222C8.57176 10.4351 8.51852 10.6303 8.625 10.8078C9.08642 11.5887 9.61883 12.2453 10.2222 12.7777C10.6836 13.1682 11.4468 13.6296 12.5116 14.162C12.76 14.2685 12.9552 14.2507 13.0972 14.1087C13.5231 13.5763 13.8248 13.2036 14.0023 12.9907C14.1443 12.7777 14.3573 12.7245 14.6412 12.831C14.8542 12.9374 15.4931 13.2391 16.5579 13.7361Z" fill="white"/>
</g>
<defs>
<clipPath id="clip0_647_519">
<rect width="23" height="23" fill="white"/>
</clipPath>
</defs>
</svg>
