<svg width="23" height="23" viewBox="0 0 23 23" fill="none" xmlns="http://www.w3.org/2000/svg">
<g clip-path="url(#clip0_656_573)">
<path d="M1.91602 20.1246C1.91593 18.6491 2.34164 17.2049 3.14205 15.9653C3.94247 14.7258 5.08357 13.7435 6.42842 13.1365C7.77328 12.5294 9.26474 12.3233 10.7238 12.5429C12.1829 12.7626 13.5476 13.3986 14.6542 14.3746" stroke="white" stroke-width="3" stroke-linecap="round" stroke-linejoin="round"/>
<path d="M9.58268 12.4583C12.229 12.4583 14.3743 10.313 14.3743 7.66667C14.3743 5.0203 12.229 2.875 9.58268 2.875C6.93632 2.875 4.79102 5.0203 4.79102 7.66667C4.79102 10.313 6.93632 12.4583 9.58268 12.4583Z" stroke="white" stroke-width="3" stroke-linecap="round" stroke-linejoin="round"/>
<path d="M18.209 15.3335V21.0835" stroke="white" stroke-width="3" stroke-linecap="round" stroke-linejoin="round"/>
<path d="M21.084 18.2085H15.334" stroke="white" stroke-width="3" stroke-linecap="round" stroke-linejoin="round"/>
</g>
<defs>
<clipPath id="clip0_656_573">
<rect width="23" height="23" fill="white"/>
</clipPath>
</defs>
</svg>
