<svg width="273" height="280" viewBox="0 0 273 280" fill="none" xmlns="http://www.w3.org/2000/svg">
<path d="M136.5 220.921C90.5511 220.921 53.3035 182.897 53.3035 136C53.3035 89.1026 90.5511 51.079 136.5 51.079C182.449 51.079 219.697 89.1026 219.697 136C219.697 160.691 209.364 182.915 192.876 198.438L244.859 218.661C262.495 195.745 273 167.106 273 136C273 60.8879 211.884 0 136.5 0C61.1155 0 0 60.8879 0 136C0 211.112 61.1155 272 136.5 272C158.969 272 180.144 266.554 198.833 256.979L180.886 207.814C168.042 216.107 152.823 220.921 136.5 220.921Z" fill="#1A85F8"/>
<path d="M232.772 236.173L263 229.342L189.261 201C187.565 202.418 185.809 203.749 184 205.029L211.467 280L218.797 249.92L233.828 265.18C234.244 265.595 234.91 265.604 235.334 265.189L247.787 252.946C248.211 252.531 248.211 251.865 247.795 251.442L232.772 236.173Z" fill="#1A85F8"/>
<path d="M210.016 106.045L181.694 185.384H148.895L136.519 148.696L123.702 185.384H90.903L62.5811 106.045H94.481L108.491 147.962L123.097 106.045H151.721L165.887 148.403L180.493 106.045H210.016Z" fill="white"/>
</svg>
